<?xml version="1.0" encoding="UTF-8"?>
<svg version="1.1" xmlns="http://www.w3.org/2000/svg" width="1024" height="1024">
<path d="M0 0 C337.92 0 675.84 0 1024 0 C1024 337.92 1024 675.84 1024 1024 C686.08 1024 348.16 1024 0 1024 C0 686.08 0 348.16 0 0 Z " fill="#F2E4CB" transform="translate(0,0)"/>
<path d="M0 0 C10.24596359 7.25594654 17.54025943 17.03184198 23.60546875 27.94921875 C23.60546875 28.60921875 23.60546875 29.26921875 23.60546875 29.94921875 C24.74615311 29.84899414 25.88683746 29.74876953 27.06208801 29.64550781 C37.84516649 28.69869678 48.62867503 27.75692574 59.41261768 26.82000732 C64.95588417 26.33824247 70.49898757 25.85474229 76.04174805 25.3671875 C81.39710576 24.89618292 86.75285234 24.42985275 92.10889244 23.9666748 C94.14581323 23.78971597 96.18259182 23.61111189 98.2192173 23.43078613 C120.91966303 21.42316414 140.07108377 21.03534657 158.98046875 36.19921875 C166.92146447 43.68787927 172.28313325 54.33194882 174.60546875 64.94921875 C174.67479315 67.71110278 174.69941872 70.43941444 174.66796875 73.19921875 C174.65647125 74.58170288 174.64534613 75.96419013 174.63452148 77.34667969 C174.62014038 79.12993652 174.62014038 79.12993652 174.60546875 80.94921875 C175.47478027 81.0486377 176.3440918 81.14805664 177.23974609 81.25048828 C188.84187574 82.6346903 200.36292338 84.44327838 211.89916992 86.29092407 C228.75693367 88.98961793 245.60382108 91.6686884 262.56103516 93.66943359 C279.12521794 95.70363148 294.55814672 101.22068937 305.64453125 114.3671875 C314.35741612 126.32423163 316.98447437 137.93958708 316.73046875 152.57421875 C316.72144531 153.57839844 316.71242188 154.58257812 316.703125 155.6171875 C316.67984621 158.06146001 316.64715362 160.50520283 316.60546875 162.94921875 C317.43804199 163.05089355 318.27061523 163.15256836 319.12841797 163.25732422 C323.07530296 164.04271055 326.56659023 165.42869603 330.23828125 167.01953125 C330.97585159 167.33269287 331.71342194 167.64585449 332.4733429 167.96850586 C334.06449216 168.64494647 335.65438513 169.32434832 337.24313354 170.00640869 C339.76261007 171.08801698 342.28520014 172.16202636 344.80883789 173.23388672 C347.4312985 174.3477646 350.05357309 175.46205549 352.67488098 176.5786438 C361.0179548 180.13192606 369.38152377 183.63505109 377.75311279 187.12054443 C379.97351846 188.04529424 382.19310913 188.97197733 384.41259766 189.89892578 C385.80880807 190.48106105 387.20512742 191.06293513 388.6015625 191.64453125 C389.27027374 191.92312485 389.93898499 192.20171844 390.62796021 192.48875427 C393.99524938 193.88594678 397.37027918 195.25838263 400.76269531 196.59350586 C401.43679947 196.85932465 402.11090363 197.12514343 402.80543518 197.39901733 C404.64621206 198.12191207 406.48940265 198.83865205 408.33276367 199.55493164 C421.9192092 205.3432338 433.43820777 215.7956543 439.08203125 229.546875 C445.68420609 247.77094848 442.23337957 263.96857099 434.6171875 281.234375 C429.53924799 292.92038713 424.89196881 304.76307322 420.2684021 316.63467407 C417.84842428 322.84683382 415.41671622 329.0543913 412.984375 335.26171875 C412.51079056 336.47060257 412.03720612 337.67948639 411.54927063 338.92500305 C408.02931922 347.89794925 404.44640702 356.84240097 400.79296875 365.76171875 C390.49020692 390.92155844 380.61684661 416.25587652 370.68457031 441.5637207 C354.98904651 481.55229779 339.21344015 521.51216835 323.23046875 561.38671875 C314.1376563 584.07568334 305.18590356 606.8199975 296.2578125 629.57421875 C277.44615117 677.51446022 277.44615117 677.51446022 270.32373047 695.18798828 C269.78868566 696.51592984 269.25369137 697.84389176 268.71875 699.171875 C268.46099792 699.81157227 268.20324585 700.45126953 267.93768311 701.11035156 C266.3141259 705.15140962 264.72361086 709.20412803 263.15411377 713.26647949 C262.08573574 716.02999607 261.00796712 718.78981008 259.92974854 721.54949951 C259.20126029 723.42596522 258.48676201 725.30784418 257.77294922 727.18994141 C250.99212829 744.50835901 240.4367834 755.77199708 223.5065918 763.18066406 C217.86498516 765.4613598 212.59275283 766.31290016 206.54296875 766.32421875 C205.88103516 766.34871094 205.21910156 766.37320313 204.53710938 766.3984375 C192.3496874 766.46671437 180.54655715 760.94347376 169.48046875 756.38671875 C167.48455677 755.57461156 165.48759648 754.76511897 163.49058533 753.95571899 C162.13809192 753.40736002 160.78592845 752.85818656 159.43409729 752.30819702 C154.30870335 750.22476971 149.16169756 748.20112397 144.00463867 746.19726562 C128.92886189 740.33885659 113.96356774 734.21753088 98.99649048 728.08786011 C84.63480703 722.20694322 70.25054469 716.38824624 55.83233643 710.64730835 C39.51073046 704.14818283 23.25654003 697.52462915 7.07667542 690.68023682 C-34.96530241 672.83913225 -34.96530241 672.83913225 -77.39453125 655.94921875 C-78.28640137 655.60697266 -79.17827148 655.26472656 -80.09716797 654.91210938 C-90.82574681 650.8667366 -100.97268039 648.77585427 -112.39453125 647.94921875 C-113.64105469 647.83964844 -114.88757813 647.73007812 -116.171875 647.6171875 C-119.47301799 647.36168108 -122.76730691 647.17069605 -126.07568359 647.04150391 C-127.72228534 646.97597269 -129.368447 646.89893456 -131.01416016 646.81396484 C-147.70675084 646.01520681 -162.31769077 648.64067303 -178.39453125 652.94921875 C-180.56702081 653.51048047 -182.74020054 654.06907755 -184.9140625 654.625 C-197.16371516 657.76428478 -197.16371516 657.76428478 -209.37744141 661.03955078 C-253.73701703 673.22710567 -253.73701703 673.22710567 -275.33203125 661.90625 C-286.71471867 654.63236429 -293.93020917 644.30468195 -297.80444336 631.57055664 C-298.02022758 630.86977777 -298.23601179 630.16899889 -298.45833492 629.44698429 C-300.65045098 622.24711483 -302.58066759 614.98203737 -304.4609375 607.6953125 C-304.82500063 606.29670694 -305.18942478 604.89819531 -305.55418396 603.49977112 C-306.50127154 599.86518487 -307.44383405 596.22944159 -308.38525391 592.59338379 C-309.52366019 588.19992298 -310.66744546 583.80786011 -311.810462 579.41559696 C-312.70088401 575.99359463 -313.59058282 572.57141115 -314.47767639 569.14854431 C-317.8447606 556.1695645 -321.31621642 543.21917076 -324.80859375 530.2734375 C-346.25563835 450.67954822 -367.31217102 370.98146591 -388.10736084 291.2149353 C-389.49413268 285.89574234 -390.88225293 280.5769047 -392.2722168 275.25854492 C-392.73106299 273.50184286 -393.18939124 271.74500544 -393.6472168 269.98803711 C-396.25566521 259.97930347 -398.91897852 249.99071514 -401.7076416 240.03060913 C-403.21648069 234.62916948 -404.6338999 229.2118735 -405.95703125 223.76171875 C-408.65623356 212.70738844 -411.62017703 201.7257805 -414.6484375 190.7578125 C-414.83783401 190.07064651 -415.02723053 189.38348053 -415.22236633 188.67549133 C-416.37934858 184.47712005 -416.37934858 184.47712005 -417.54272461 180.28051758 C-430.01746559 135.38083347 -430.01746559 135.38083347 -419.39453125 115.94921875 C-409.10828743 99.1206388 -394.16656801 92.44677771 -375.58203125 87.69921875 C-366.16248741 85.25782265 -356.79681128 82.66749856 -347.45703125 79.9375 C-346.12454657 79.54925424 -344.79204164 79.161078 -343.45951843 78.77296448 C-324.33395292 73.19639842 -305.23315521 67.53487556 -286.12915039 61.88500977 C-275.58813574 58.7680123 -265.04494673 55.65856387 -254.49679947 52.56578064 C-252.55173797 51.99532498 -250.60695701 51.423913 -248.66220093 50.85241699 C-227.51279232 44.65491185 -206.19927911 39.10264116 -184.87335205 33.55126953 C-180.21768785 32.33861626 -175.5629964 31.12224113 -170.90820312 29.90625 C-167.28258737 28.95950025 -163.65692168 28.0129418 -160.03125 27.06640625 C-159.14794006 26.83576792 -158.26463013 26.60512959 -157.35455322 26.36750221 C-141.20257829 22.15086292 -141.20257829 22.15086292 -133.68554688 20.23120117 C-118.52316748 16.35049284 -103.52460125 11.95828331 -88.51953125 7.51171875 C-74.21954545 3.28250217 -59.9183777 -0.94413779 -45.578125 -5.03515625 C-44.56561676 -5.3292186 -43.55310852 -5.62328094 -42.50991821 -5.92625427 C-26.93804499 -10.32773917 -13.79781531 -8.3358493 0 0 Z " fill="#4D3830" transform="translate(511.39453125,146.05078125)"/>
<path d="M0 0 C2.30719055 0.93555214 4.61448393 1.87085072 6.921875 2.8059082 C27.63020132 11.20373617 48.31279986 19.66458696 68.98815918 28.14318848 C77.26183839 31.53564764 85.53690909 34.92470736 93.8125 38.3125 C94.72128906 38.68463623 95.63007812 39.05677246 96.56640625 39.44018555 C109.21100431 44.61696133 121.87060897 49.75537666 134.54077148 54.86923218 C135.41419189 55.22176056 136.2876123 55.57428894 137.1875 55.9375 C138.05673096 56.28833649 138.92596191 56.63917297 139.8215332 57.00064087 C152.76912835 62.2293961 165.67613185 67.54857241 178.55703735 72.93936157 C188.16345213 76.95953523 197.78498067 80.93671982 207.43884277 84.84164429 C213.52464057 87.30391564 219.60603922 89.77704151 225.6875 92.25 C226.52649841 92.59089661 227.36549683 92.93179321 228.22991943 93.28302002 C233.76302698 95.53230712 239.2919063 97.79160768 244.81655884 100.06158447 C246.62410609 100.80273128 248.43281636 101.54104899 250.24276733 102.27630615 C275.83362731 112.6779586 275.83362731 112.6779586 280.6875 120.25 C281.491875 121.4565625 281.491875 121.4565625 282.3125 122.6875 C286.75979866 130.97564751 287.17155735 139.97373638 284.64111328 148.97021484 C283.18900959 153.0344689 281.46880846 156.98069677 279.75 160.9375 C279.1147543 162.45258837 278.48243057 163.96890463 277.8527832 165.48632812 C276.50759471 168.72544416 275.15245914 171.9601456 273.79199219 175.19287109 C270.55308135 182.9309365 267.5017318 190.74356672 264.43557739 198.55126953 C262.64165434 203.11606117 260.83757709 207.67684004 259.03515625 212.23828125 C258.3073971 214.08152034 257.57969519 215.92478202 256.85205078 217.76806641 C253.69125828 225.77395222 250.52672752 233.77835997 247.36206055 241.78271484 C246.30698816 244.45144178 245.25211335 247.12024675 244.19726562 249.7890625 C240.50160105 259.13838835 236.8021971 268.48621878 233.09765625 277.83203125 C231.52327742 281.80462408 229.94910381 285.77729819 228.375 289.75 C227.97505829 290.75919495 227.57511658 291.76838989 227.16305542 292.8081665 C222.87738005 303.62490023 218.60292172 314.44570194 214.375 325.28515625 C206.20551 346.22029222 197.95507231 367.1204503 189.60546875 387.984375 C189.19785246 389.00296537 188.79023617 390.02155575 188.37026787 391.0710125 C184.23497201 401.40327039 180.09612025 411.73409616 175.95135975 422.06256104 C166.84063288 444.76866286 157.81959869 467.50651872 148.92504883 490.29821777 C143.63287848 503.85639463 138.27353862 517.3848886 132.84011841 530.88717651 C125.05716333 550.23051088 117.36210844 569.60473033 109.87255859 589.0637207 C107.02729 596.43691504 104.11727647 603.77955004 101.01953125 611.05078125 C100.61445091 612.02554665 100.61445091 612.02554665 100.20118713 613.02000427 C96.81988435 620.81510253 91.54513522 626.17312249 83.875 629.75 C63.29614258 637.84659964 39.64527137 623.00908561 20.6875 615.25 C19.96715576 614.95546936 19.24681152 614.66093872 18.50463867 614.35748291 C10.6487296 611.14534212 2.79661854 607.92401871 -5.05273438 604.69589233 C-16.44922962 600.00933941 -27.85816385 595.35367601 -39.2694397 590.70324707 C-56.50928232 583.67672749 -73.73404161 576.61515402 -90.9375 569.5 C-91.89257446 569.10500305 -92.84764893 568.7100061 -93.83166504 568.30303955 C-94.78214722 567.90993591 -95.73262939 567.51683228 -96.71191406 567.11181641 C-122.37177115 556.49960111 -148.06804982 545.97684182 -173.77490234 535.47903442 C-175.87473966 534.62150765 -177.97451234 533.76382259 -180.07421875 532.90597534 C-190.78316661 528.53124685 -201.49632111 524.16804277 -212.23046875 519.85546875 C-213.92693877 519.17265262 -215.62339107 518.48979248 -217.31982422 517.80688477 C-220.40908212 516.56346599 -223.50079579 515.32647065 -226.59423828 514.09350586 C-255.48396243 502.51544969 -255.48396243 502.51544969 -262.3125 487.25 C-265.64921144 477.39252569 -264.24623655 466.03155646 -259.9453125 456.82421875 C-259.20674889 455.15746133 -258.47168065 453.48915213 -257.73950195 451.81958008 C-257.34534088 450.92622955 -256.95117981 450.03287903 -256.54507446 449.11245728 C-254.29756472 443.89297497 -252.24443792 438.59701885 -250.17578125 433.3046875 C-249.72981094 432.16750778 -249.28384064 431.03032806 -248.82435608 429.85868835 C-247.42254059 426.28158351 -246.02375554 422.70330234 -244.625 419.125 C-243.63888227 416.6067235 -242.65200077 414.08874662 -241.66503906 411.57080078 C-239.7355731 406.6478199 -237.80715568 401.72443007 -235.87939453 396.80078125 C-233.03067924 389.52750989 -230.16844551 382.25963002 -227.30026245 374.99401855 C-222.41535062 362.61877388 -217.56457756 350.2303271 -212.72103882 337.83883667 C-204.69445976 317.30480797 -196.61511574 296.79223772 -188.49693298 276.29426575 C-185.95782251 269.8825218 -183.42323647 263.46900104 -180.890625 257.0546875 C-174.7906351 241.6075446 -168.69050889 226.16113779 -162.5 210.75 C-157.66798811 198.71666655 -152.93494348 186.64569667 -148.21142578 174.56942749 C-139.63496559 152.64278986 -130.94402855 130.76443782 -122.18310547 108.91088867 C-117.24107043 96.58155445 -112.31778442 84.24557944 -107.45281982 71.88562012 C-106.57236985 69.65006063 -105.69008948 67.41523304 -104.80712891 65.18066406 C-104.21905165 63.69206672 -103.6309984 62.2034599 -103.04296875 60.71484375 C-102.75025085 59.9738443 -102.45753296 59.23284485 -102.15594482 58.46939087 C-100.4492328 54.14447045 -98.75129628 49.81624123 -97.06103516 45.48486328 C-95.06947718 40.38158914 -93.06554537 35.28330743 -91.05480957 30.18756104 C-90.28150917 28.22118574 -89.51254931 26.2530967 -88.74841309 24.28314209 C-76.59168256 -7.03934302 -76.59168256 -7.03934302 -62.9375 -14.625 C-41.820752 -21.33841699 -19.04340631 -7.74800801 0 0 Z " fill="#F1E7D7" transform="translate(646.3125,257.75)"/>
<path d="M0 0 C6.72565758 0.33213124 12.34165635 3.06456134 18.4375 5.75 C20.77643255 6.7599254 23.11632025 7.76764088 25.45703125 8.7734375 C26.06778503 9.03657745 26.67853882 9.29971741 27.30780029 9.5708313 C34.37245012 12.60658982 41.49698524 15.49200863 48.625 18.375 C49.96806601 18.91972109 51.31108335 19.46456222 52.65405273 20.00952148 C58.90939392 22.54589222 65.16939365 25.07013222 71.4375 27.57479858 C110.26584532 43.09565747 110.26584532 43.09565747 123 53 C124.33611328 54.01513672 124.33611328 54.01513672 125.69921875 55.05078125 C145.31540572 70.45372862 156.55183346 90.27508783 159.77294922 115.00439453 C162.26421863 136.90077751 155.16627431 161.31043312 146 181 C145.40819243 182.32392314 144.81709959 183.64816592 144.2265625 184.97265625 C132.0116564 212.01664926 112.94191493 240.97152325 84.37109375 252.7734375 C58.51857484 262.17980012 58.51857484 262.17980012 47 261 C45.09920826 260.94397666 43.19841567 260.88798016 41.29760742 260.83251953 C13.78883648 259.72390327 -13.16193749 245.45727071 -38.234375 235.13378906 C-41.60518863 233.75189831 -44.98765174 232.40332535 -48.375 231.0625 C-53.34424096 229.07561902 -58.29888242 227.05863846 -63.2421875 225.0078125 C-63.8908075 224.73906815 -64.53942749 224.47032379 -65.20770264 224.19343567 C-68.5358033 222.81441115 -71.86281303 221.43279017 -75.18896484 220.04907227 C-75.81199493 219.79032318 -76.43502502 219.5315741 -77.07693481 219.26498413 C-78.79672689 218.5507167 -80.51605284 217.83532721 -82.23535156 217.11987305 C-84.13293988 216.35121907 -86.05770668 215.64743111 -88 215 C-87.57534294 207.63927766 -85.01651083 201.67862176 -82 195 C-81.0821875 195.433125 -80.164375 195.86625 -79.21875 196.3125 C-70.00088688 200.72480029 -70.00088688 200.72480029 -60 201 C-57.22246056 198.82157837 -56.14776744 196.42238415 -54.86206055 193.18188477 C-54.46652481 192.19589294 -54.07098907 191.20990112 -53.66346741 190.19403076 C-53.24214035 189.12066467 -52.82081329 188.04729858 -52.38671875 186.94140625 C-51.94029526 185.82171448 -51.49387177 184.70202271 -51.03392029 183.54840088 C-49.82731111 180.517068 -48.62772373 177.48307657 -47.43149567 174.44763565 C-46.43855745 171.93172955 -45.4398134 169.41814748 -44.44091034 166.90460491 C-37.48588628 149.40336996 -30.62466218 131.86563482 -23.83203125 114.30078125 C-21.23762199 107.59199893 -18.58675986 100.90738499 -15.90063477 94.23486328 C-12.60507937 86.04207569 -9.37429689 77.82392105 -6.16015625 69.59887695 C-3.90627916 63.83278698 -1.63326179 58.07696267 0.703125 52.34375 C1.12279541 51.30323486 1.54246582 50.26271973 1.97485352 49.19067383 C2.75990483 47.24645876 3.55408998 45.30589654 4.35913086 43.36987305 C6.63499238 37.69674902 8.14721899 32.89778017 6.3515625 26.796875 C4.42012289 24.22906511 2.11321257 22.90566341 -0.625 21.25 C-1.62789062 20.63640625 -2.63078125 20.0228125 -3.6640625 19.390625 C-4.43492187 18.93171875 -5.20578125 18.4728125 -6 18 C-5.50356293 12.29097373 -4.20216829 4.20216829 0 0 Z " fill="#9F2F2F" transform="translate(608,412)"/>
<path d="M0 0 C-0.16081055 0.85859619 -0.32162109 1.71719238 -0.48730469 2.60180664 C-1.37970201 8.51670112 -1.24423122 14.46647695 -1.25 20.4375 C-1.25100708 21.16839844 -1.25201416 21.89929688 -1.25305176 22.65234375 C-1.22501766 53.52283053 1.73714753 84.35961172 4.25411987 115.10403442 C5.48586296 130.15710668 6.62116569 145.21352528 7.60620117 160.28491211 C7.74285841 162.37326107 7.88150444 164.4614809 8.0222168 166.54956055 C8.21514578 169.42720454 8.39998082 172.30524363 8.58203125 175.18359375 C8.64010452 176.03731064 8.6981778 176.89102753 8.75801086 177.77061462 C8.96408548 181.16855754 9.08716177 183.73851469 8 187 C6.02 183.535 6.02 183.535 4 180 C-2.73316825 181.78872504 -9.43553166 183.68003514 -16.125 185.625 C-16.88353271 185.84309326 -17.64206543 186.06118652 -18.42358398 186.28588867 C-21.9980284 187.10104171 -21.9980284 187.10104171 -25 189 C-25.14623775 190.32615116 -25.22745006 191.65957115 -25.28125 192.99267578 C-25.31802856 193.84935852 -25.35480713 194.70604126 -25.3927002 195.58868408 C-25.42810913 196.53137146 -25.46351807 197.47405884 -25.5 198.4453125 C-25.54024292 199.42441589 -25.58048584 200.40351929 -25.62194824 201.41229248 C-25.75318412 204.64967693 -25.87689297 207.88729693 -26 211.125 C-26.08911977 213.38688439 -26.17831316 215.64876587 -26.26757812 217.91064453 C-26.8008127 231.64216944 -27.23648178 245.37326934 -27.55123901 259.11141968 C-27.93200583 275.7242424 -28.49153064 292.33036154 -29.0625 308.9375 C-29.08569305 309.61289574 -29.10888611 310.28829147 -29.13278198 310.98415375 C-29.4192179 319.32286131 -29.70820033 327.66147844 -30 336 C-37.58035714 339.40178571 -37.58035714 339.40178571 -42 339 C-41.71125 339.96421875 -41.4225 340.9284375 -41.125 341.921875 C-40.75375 343.18515625 -40.3825 344.4484375 -40 345.75 C-39.62875 347.00296875 -39.2575 348.2559375 -38.875 349.546875 C-38 353 -38 353 -38 357 C-37.01386719 356.72027344 -36.02773437 356.44054687 -35.01171875 356.15234375 C-21.06254973 352.22424442 -7.03560666 348.60500385 7 345 C6.84660156 343.7521875 6.69320312 342.504375 6.53515625 341.21875 C6.44886963 340.51685547 6.36258301 339.81496094 6.27368164 339.09179688 C5.91914227 336.38199017 5.47105535 333.69174485 5 331 C4.22914063 330.95101563 3.45828125 330.90203125 2.6640625 330.8515625 C1.15972656 330.73941406 1.15972656 330.73941406 -0.375 330.625 C-1.37273437 330.55539062 -2.37046875 330.48578125 -3.3984375 330.4140625 C-6 330 -6 330 -8 328 C-8.22705078 325.29443359 -8.22705078 325.29443359 -8.1953125 321.8984375 C-8.18886719 320.68671875 -8.18242187 319.475 -8.17578125 318.2265625 C-8.15064453 316.32003906 -8.15064453 316.32003906 -8.125 314.375 C-8.11597656 313.09625 -8.10695313 311.8175 -8.09765625 310.5 C-8.07402303 307.33314833 -8.04107629 304.16666576 -8 301 C-4.56496228 299.82599412 -1.12659286 298.66206791 2.3125 297.5 C3.28896484 297.16613281 4.26542969 296.83226562 5.27148438 296.48828125 C6.20927734 296.17246094 7.14707031 295.85664062 8.11328125 295.53125 C9.40939331 295.09135742 9.40939331 295.09135742 10.73168945 294.64257812 C13 294 13 294 16 294 C17.58845488 308.04714591 18.72866091 322.09712197 19.69921875 336.19921875 C19.85630336 338.44501411 20.01371185 340.69078684 20.17141724 342.9365387 C20.50609357 347.70932463 20.83891151 352.48223499 21.1703186 357.25524902 C21.69229115 364.7671879 22.22083847 372.27865531 22.75073242 379.79003906 C24.17720528 400.01984821 25.60054648 420.2498698 27.00878906 440.48095703 C27.71279448 450.59369202 28.42402632 460.70588941 29.14405918 470.8174963 C29.58642772 477.03471566 30.01998389 483.25246233 30.44675446 489.47077084 C30.71297691 493.31740747 30.98790857 497.163385 31.26531601 501.00922966 C31.39048343 502.76802527 31.51218416 504.527072 31.62994766 506.28637886 C32.89212944 525.08210598 35.40153763 540.80224297 50 554 C51.00340816 554.99658019 52.00395687 555.99605873 53 557 C49.4832974 558.01492658 45.96107048 559.00920501 42.4375 560 C41.44685547 560.28617188 40.45621094 560.57234375 39.43554688 560.8671875 C30.55051517 563.34673123 23.50763967 563.89506394 15 560 C4.36614013 553.69986758 1.11234871 545.45988898 -1.9375 533.9375 C-2.30732146 532.58057439 -2.67804265 531.22389375 -3.04956055 529.86743164 C-4.39530289 524.9191862 -5.70004086 519.96044275 -7 515 C-7.27469116 513.95199219 -7.54938232 512.90398438 -7.83239746 511.82421875 C-11.20498259 498.94104631 -14.54456508 486.04948801 -17.86328125 473.15234375 C-20.01661738 464.78724528 -22.19220651 456.42990538 -24.4382019 448.08914185 C-25.36566218 444.64022293 -26.2873377 441.18975699 -27.21009827 437.73957825 C-28.68049723 432.24272149 -30.15282813 426.74638215 -31.625 421.25 C-32.10271851 419.4663504 -32.10271851 419.4663504 -32.59008789 417.64666748 C-38.21764502 396.63700523 -43.85638266 375.63035334 -49.5 354.625 C-49.6884272 353.92365433 -49.8768544 353.22230865 -50.07099152 352.49971008 C-51.171306 348.40424816 -52.27174677 344.3088202 -53.37232971 340.2134304 C-53.72759761 338.8913784 -54.08283252 337.56931753 -54.43803406 336.2472477 C-56.23326623 329.56538612 -58.03035733 322.88404024 -59.83544922 316.20483398 C-63.67718186 301.98404798 -67.44148867 287.74443977 -71.16375732 273.49194336 C-77.39289768 249.64804868 -83.69596918 225.82440746 -90.04019165 202.01089478 C-97.20131028 175.12978528 -104.33002245 148.24058765 -111.36225128 121.32543945 C-111.92614609 119.16843096 -112.49097579 117.01166944 -113.05609131 114.85498047 C-115.39888152 105.9104614 -117.71495286 96.95948136 -120 88 C-120.45889618 86.20991516 -120.45889618 86.20991516 -120.92706299 84.38366699 C-121.79850861 80.96449855 -122.65402225 77.54177122 -123.50390625 74.1171875 C-123.88687111 72.62072189 -123.88687111 72.62072189 -124.27757263 71.09402466 C-126.82878719 60.64224752 -126.90409157 51.15750121 -121.640625 41.5078125 C-116.22063018 32.98668662 -110.66404653 30.2412592 -101.12109375 27.609375 C-100.04926346 27.30360535 -98.97743317 26.99783569 -97.87312317 26.68280029 C-94.39762457 25.69407938 -90.91771289 24.72198252 -87.4375 23.75 C-85.04818402 23.07338964 -82.65918672 22.3956529 -80.27050781 21.71679688 C-75.59661516 20.39027763 -70.92108083 19.06985624 -66.24365234 17.75585938 C-58.90556389 15.69429704 -51.57723357 13.59976233 -44.25 11.5 C-42.16147248 10.90489826 -40.07293135 10.30984428 -37.984375 9.71484375 C-30.46442616 7.56646445 -22.95798393 5.37173799 -15.45410156 3.16796875 C-14.06916504 2.76191406 -14.06916504 2.76191406 -12.65625 2.34765625 C-11.44678711 1.99199585 -11.44678711 1.99199585 -10.21289062 1.62915039 C-9.48263672 1.42153076 -8.75238281 1.21391113 -8 1 C-7.32646484 0.80720459 -6.65292969 0.61440918 -5.95898438 0.41577148 C-4 0 -4 0 0 0 Z " fill="#F1E7D8" transform="translate(234,230)"/>
<path d="M0 0 C24.8200888 5.02242166 49.77910686 9.27902361 74.76977539 13.35522461 C74.76977539 14.01522461 74.76977539 14.67522461 74.76977539 15.35522461 C73.26586914 16.54663086 73.26586914 16.54663086 71.20727539 17.91772461 C56.20264011 29.0264195 50.51678024 49.6289627 44.04930115 66.36181641 C39.6398672 77.76327696 35.07801165 89.10293714 30.52490234 100.44763184 C22.44747145 120.57696145 14.44279738 140.73165016 6.60498047 160.95556641 C6.29677368 161.74992599 5.98856689 162.54428558 5.67102051 163.36271667 C5.10859437 164.81309752 4.54727989 166.26391027 3.98742676 167.71528625 C2.33788509 171.97149587 0.58863573 176.16957691 -1.23022461 180.35522461 C-2.19057617 180.19538086 -3.15092773 180.03553711 -4.14038086 179.87084961 C-25.75500627 176.81171567 -47.57149503 180.61585103 -65.79272461 192.85522461 C-78.67952628 202.59575029 -85.5339891 215.50224192 -91.23022461 230.35522461 C-91.52380859 231.08870117 -91.81739258 231.82217773 -92.11987305 232.57788086 C-96.80245763 244.64394412 -97.77033515 256.17687167 -97.73022461 268.98022461 C-97.72876434 269.71070007 -97.72730408 270.44117554 -97.72579956 271.19378662 C-97.59770055 291.94932794 -93.16849585 309.46833862 -78.74584961 325.01928711 C-74.14397386 329.29245745 -68.83626047 332.55220668 -63.23022461 335.35522461 C-63.84510014 338.85393651 -64.75410966 341.98255527 -66.06616211 345.28100586 C-66.46053467 346.27874023 -66.85490723 347.27647461 -67.26123047 348.30444336 C-67.70474854 349.41432617 -68.1482666 350.52420898 -68.60522461 351.66772461 C-69.34532431 353.53713481 -70.08542238 355.40654566 -70.82548523 357.27597046 C-71.97138946 360.16710766 -73.12142332 363.05659594 -74.27142334 365.94610596 C-77.57515288 374.24717596 -80.87331911 382.55045011 -84.16772461 390.85522461 C-84.56821014 391.86434906 -84.96869568 392.87347351 -85.38131714 393.91317749 C-92.35578728 411.49820512 -99.17553066 429.14007344 -105.94155884 446.80621338 C-111.45013892 461.18704935 -117.01983334 475.53728076 -122.80615234 489.80883789 C-123.23742432 490.87344238 -123.66869629 491.93804688 -124.11303711 493.03491211 C-124.47800293 493.92936035 -124.84296875 494.82380859 -125.21899414 495.74536133 C-130.03140116 508.16560058 -130.61156569 524.40822713 -125.51538086 536.90209961 C-123.39111934 540.956921 -120.92186998 544.66145896 -118.23022461 548.35522461 C-117.90022461 549.01522461 -117.57022461 549.67522461 -117.23022461 550.35522461 C-129.74803457 550.88497519 -139.35931623 549.46804912 -149.23022461 541.35522461 C-155.05404518 535.8932725 -158.91560313 530.55257979 -159.40649414 522.44335938 C-159.45967741 513.13151465 -158.49663421 504.11246278 -157.16772461 494.91772461 C-156.94011094 493.29508211 -156.7130789 491.67235794 -156.48657227 490.04956055 C-155.75123131 484.81565199 -154.99310992 479.58518035 -154.23022461 474.35522461 C-154.10669617 473.50635681 -153.98316772 472.65748901 -153.855896 471.78289795 C-151.87761576 458.20415628 -149.8376226 444.63478109 -147.79003906 431.06634521 C-147.18805318 427.07566184 -146.58693676 423.08484824 -145.98608398 419.09399414 C-145.87823704 418.37771001 -145.77039009 417.66142588 -145.65927505 416.92343616 C-145.4367206 415.44530124 -145.21416736 413.96716613 -144.9916153 412.48903084 C-143.47338967 402.40570608 -141.95436301 392.32250341 -140.43237305 382.23974609 C-138.17609047 367.29040122 -135.92587468 352.3402274 -133.69897461 337.38647461 C-127.08899431 293.01947047 -127.08899431 293.01947047 -124.18188477 276.0246582 C-119.19407695 246.68486068 -114.54876171 217.24595121 -110.73022461 187.73022461 C-106.53025204 155.30073543 -100.90602618 123.04661117 -95.4753418 90.80395508 C-94.01379463 82.11797469 -92.59135603 73.42631925 -91.19116211 64.73022461 C-90.83192167 62.50552527 -90.4726279 60.28083453 -90.11328125 58.05615234 C-89.58341427 54.77531695 -89.05493793 51.49429464 -88.53146362 48.21243286 C-81.94007091 6.8931162 -81.94007091 6.8931162 -69.23022461 -2.64477539 C-47.9708434 -13.67407842 -21.97826598 -4.46073207 0 0 Z " fill="#F1E7D8" transform="translate(490.230224609375,216.644775390625)"/>
<path d="M0 0 C-0.51380722 1.28760727 -0.51380722 1.28760727 -1.03799438 2.60122681 C-4.38615809 11.07523267 -4.38615809 11.07523267 -6.5859375 19.8984375 C-6.81635742 21.16010742 -7.04677734 22.42177734 -7.28417969 23.72167969 C-7.52553843 25.14732329 -7.76396158 26.57346589 -8 28 C-8.13378052 28.80280396 -8.26756104 29.60560791 -8.40539551 30.43273926 C-9.34286127 36.1059727 -10.241127 41.7850607 -11.13012695 47.46606445 C-14.11227631 66.50209333 -17.24346899 85.50911734 -20.5 104.5 C-24.86513014 129.97001414 -28.95454414 155.47685123 -33 181 C-68.145 181.495 -68.145 181.495 -104 182 C-104.33 186.95 -104.66 191.9 -105 197 C-102.3084375 196.9690625 -102.3084375 196.9690625 -99.5625 196.9375 C-97.70833878 196.9161878 -95.85287502 196.92773498 -94 197 C-92.27095149 198.72904851 -92.66734078 201.10466726 -92.50439453 203.46923828 C-92.42309296 204.64461151 -92.34179138 205.81998474 -92.25802612 207.03097534 C-92.17545563 208.3227066 -92.09288513 209.61443787 -92.0078125 210.9453125 C-91.9428124 211.94164389 -91.9428124 211.94164389 -91.87649918 212.95810318 C-90.8682074 228.5337886 -90.36438189 244.11901998 -89.93554688 259.71966553 C-89.85446232 262.60609596 -89.76650361 265.4923016 -89.67876816 268.37853622 C-89.44849843 275.97553253 -89.25390226 283.57255396 -89.08972168 291.17126465 C-89.0027288 294.88355247 -88.88711194 298.59420915 -88.77050781 302.30566406 C-88.72279619 304.49800817 -88.67678635 306.69039024 -88.6328125 308.8828125 C-88.59421112 309.87505829 -88.55560974 310.86730408 -88.51583862 311.88961792 C-88.48434792 314.35600415 -88.50768746 316.58388386 -89 319 C-92.64878416 322.62144604 -95.66093402 322.23727629 -101 323 C-101.33 327.95 -101.66 332.9 -102 338 C-87.15 338.33 -72.3 338.66 -57 339 C-57.51046875 342.44050781 -58.0209375 345.88101562 -58.546875 349.42578125 C-59.28201102 354.38790829 -60.01613405 359.35018499 -60.75 364.3125 C-60.84735947 364.97067593 -60.94471893 365.62885185 -61.04502869 366.3069725 C-63.76070741 384.66869399 -66.44548031 403.03468076 -69.09375 421.40625 C-69.22459236 422.31353537 -69.35543472 423.22082073 -69.490242 424.15559959 C-70.78947467 433.16499879 -72.08718564 442.17461161 -73.37935257 451.18502712 C-73.86657176 454.58009251 -74.35519506 457.97495471 -74.84424591 461.3697567 C-75.08253115 463.02538423 -75.32030293 464.68108574 -75.55754852 466.33686256 C-76.78737553 474.9138858 -78.05757347 483.47989579 -79.47070312 492.02880859 C-79.5886813 492.75028045 -79.70665947 493.4717523 -79.82821274 494.21508694 C-80.37503598 497.55878267 -80.93244151 500.89913524 -81.51495361 504.2368927 C-84.33518473 521.32557018 -83.9810035 535.89999456 -74.3671875 550.84375 C-73.09705449 552.84693121 -72.02080113 554.86117857 -71 557 C-70.34 557 -69.68 557 -69 557 C-69 557.66 -69 558.32 -69 559 C-81.69661955 559.4516584 -90.07656489 559.05411337 -99.95703125 550.5234375 C-105.51698584 543.65588365 -106.68175028 536.36317728 -107.1875 527.75 C-107.26299072 526.68918213 -107.33848145 525.62836426 -107.41625977 524.53540039 C-107.91092044 517.33510031 -108.24195489 510.12921842 -108.54248047 502.91870117 C-109.00908892 492.52682511 -109.87115317 482.1637514 -110.68736267 471.79489136 C-114.24686477 426.5688678 -117.34145047 381.31831679 -120.25 336.04620361 C-120.83013302 327.01887489 -121.41295044 317.99172547 -122 308.96484375 C-122.0818561 307.70531136 -122.1637122 306.44577896 -122.24804878 305.14807892 C-123.50369438 285.89388603 -124.89899766 266.65306138 -126.3784771 247.41487312 C-127.87291243 227.97609227 -129.14843788 208.53572995 -130.28442383 189.07275391 C-131.14624019 174.40787015 -132.1525553 159.77232297 -133.453125 145.140625 C-135.05007755 127.1495315 -136.24988654 109.14065317 -137.36254883 91.11376953 C-137.63510931 86.70039427 -137.91630876 82.2876145 -138.19967937 77.8749218 C-138.42223138 74.39172424 -138.6397625 70.90822599 -138.85590553 67.4246254 C-138.95752776 65.79741338 -139.06072335 64.17029864 -139.16571617 62.54330063 C-139.6950625 54.30387571 -140.09811053 46.07838668 -140.15942383 37.82080078 C-140.16880069 37.1381761 -140.17817755 36.45555141 -140.18783855 35.75224113 C-140.18545529 26.46142422 -137.81177897 17.46781247 -131.19140625 10.71875 C-120.39698088 2.25253402 -108.74537036 1.67073156 -95.625 0.9375 C-94.83261932 0.89264465 -94.04023865 0.84778931 -93.22384644 0.80157471 C-62.21051892 -0.87045145 -31.04619987 -0.16909507 0 0 Z " fill="#F1E7D8" transform="translate(393,213)"/>
<path d="M0 0 C12.45445867 3.41300069 25.42269564 7.40508794 36 15 C36.76699219 15.54914063 37.53398438 16.09828125 38.32421875 16.6640625 C48.17130666 24.52167085 55.03458548 37.62286423 57 50 C58.26492276 67.86455045 55.57498701 83.27874124 49.875 100.125 C49.62779205 100.85876862 49.38058411 101.59253723 49.12588501 102.34854126 C38.89746549 132.57720707 22.56304437 166.79307331 -7.1875 181.9375 C-20.62645084 188.55528371 -35.21251179 189.17722301 -49.375 184.375 C-56.53004912 181.82006799 -63.34942655 178.67737591 -70 175 C-69.35890463 171.26895187 -68.31293324 167.95771252 -66.91796875 164.44140625 C-66.48677734 163.34884521 -66.05558594 162.25628418 -65.61132812 161.13061523 C-65.14146484 159.95313721 -64.67160156 158.77565918 -64.1875 157.5625 C-63.69305405 156.31530655 -63.19891954 155.06798959 -62.70507812 153.82055664 C-61.40360708 150.53686313 -60.09647367 147.25545503 -58.78753662 143.97473145 C-58.01824805 142.04575659 -57.25033124 140.11624192 -56.48291016 138.18652344 C-51.69291042 126.14393491 -46.87484741 114.11378539 -41.95678711 102.12280273 C-37.15802986 90.42016887 -32.50722654 78.66853134 -27.9375 66.875 C-13.40505951 29.38678563 -13.40505951 29.38678563 -5.4375 11 C-4.79216309 9.51052856 -4.79216309 9.51052856 -4.13378906 7.9909668 C-1.12921202 1.12921202 -1.12921202 1.12921202 0 0 Z " fill="#F1E6D7" transform="translate(664,458)"/>
<path d="M0 0 C1.31025146 -0.0141394 1.31025146 -0.0141394 2.64697266 -0.02856445 C3.88906494 -0.02215942 3.88906494 -0.02215942 5.15625 -0.015625 C6.26709961 -0.01224121 6.26709961 -0.01224121 7.40039062 -0.00878906 C9.80456628 0.28753956 11.40112562 1.06565097 13.5 2.25 C14.49 2.745 14.49 2.745 15.5 3.25 C10.54257793 18.39767854 5.00899447 33.25313292 -0.95786858 48.0297184 C-2.18622268 51.07219503 -3.40977442 54.11656659 -4.63221741 57.16142273 C-7.66757022 64.71943056 -10.70984458 72.2746459 -13.75372314 79.82922363 C-16.33540186 86.23689665 -18.91344803 92.64600685 -21.48657417 99.05711937 C-22.67659955 102.0181226 -23.87174857 104.9770206 -25.06712341 107.93586731 C-28.99640921 117.70336945 -32.75224584 127.4934987 -36.1070776 137.4750948 C-38.42271353 144.301875 -41.24650459 150.81846483 -44.5 157.25 C-54.90987605 155.83216742 -62.81666851 146.57456257 -69.046875 138.69921875 C-82.95372134 119.97395896 -83.19673317 92.21209027 -80.01953125 69.87158203 C-78.75778521 63.77883545 -76.80877543 58.01813708 -74.5 52.25 C-74.21672852 51.51136719 -73.93345703 50.77273438 -73.64160156 50.01171875 C-66.19865181 30.81180714 -55.46604938 16.11335195 -36.5 7.25 C-24.38884288 2.06515823 -13.07753245 0.10880395 0 0 Z " fill="#9F2F30" transform="translate(472.5,394.75)"/>
<path d="M0 0 C23.43 0 46.86 0 71 0 C71 7 71 7 70 9 C69.7145244 11.33345273 69.47325337 13.66035789 69.25 16 C68.33131939 24.86317998 67.11254691 33.6795732 65.83483887 42.49682617 C65.61224902 44.03620981 65.39193917 45.57592491 65.1739502 47.1159668 C64.86202944 49.31398337 64.54159122 51.51059522 64.21875 53.70703125 C64.03248047 54.9906958 63.84621094 56.27436035 63.65429688 57.59692383 C63.06670499 60.65305938 62.18568223 63.14368138 61 66 C60.72260258 69.27609863 60.5894379 72.51050138 60.52148438 75.79492188 C60.30808323 81.39019573 59.36212956 86.7388036 58.28799438 92.22976685 C56.41912844 101.83992371 54.95801076 111.51737769 53.4375 121.1875 C53.13106131 123.12438092 52.82442159 125.06123004 52.51757812 126.99804688 C50.98877083 136.66196583 49.48775841 146.32957032 48 156 C33.15 156 18.3 156 3 156 C3 141 3 141 4 140 C6.57205373 139.4284325 9.15783913 138.97130198 11.75 138.5 C13.95845606 138.22050243 13.95845606 138.22050243 15 137 C15.09899209 135.60849132 15.12783066 134.2119198 15.12841797 132.81689453 C15.12979767 131.90890106 15.13117737 131.00090759 15.13259888 130.06539917 C15.12751312 129.05639557 15.12242737 128.04739197 15.1171875 127.0078125 C15.11411591 125.94587677 15.11104431 124.88394104 15.10787964 123.78982544 C15.03438115 110.59254015 14.65671304 97.4024569 14.25537109 84.21191406 C14.1678668 81.33148334 14.08455581 78.45098386 14.00537109 75.5703125 C13.45794265 55.6709791 12.47085716 35.85386461 11 16 C7.37 15.67 3.74 15.34 0 15 C0 10.05 0 5.1 0 0 Z " fill="#9F2F2F" transform="translate(288,395)"/>
<path d="M0 0 C3.78982749 2.95892137 4.7363374 6.64719857 5.44384766 11.26538086 C5.55520852 12.70680906 5.6526672 14.14935748 5.73852539 15.5925293 C5.82397362 16.77415146 5.82397362 16.77415146 5.91114807 17.97964478 C6.09389809 20.55304031 6.25823227 23.12724457 6.42211914 25.7019043 C6.54534499 27.49119595 6.66954219 29.28042096 6.79467773 31.06958008 C7.70069474 44.20991742 8.49911176 57.35930835 9.21337891 70.51147461 C9.55385844 76.69461371 9.97084887 82.83778611 10.63208008 88.99438477 C11.08112308 93.84424188 11.23331049 98.71121263 11.42211914 103.5769043 C11.46530273 104.6287793 11.50848633 105.6806543 11.55297852 106.7644043 C11.65780423 109.32681057 11.75997269 111.88929229 11.85961914 114.4519043 C8.42458142 115.62591018 4.986212 116.78983639 1.54711914 117.9519043 C0.5706543 118.28577148 -0.40581055 118.61963867 -1.41186523 118.96362305 C-2.3496582 119.27944336 -3.28745117 119.59526367 -4.25366211 119.9206543 C-5.11773682 120.21391602 -5.98181152 120.50717773 -6.87207031 120.80932617 C-9.14038086 121.4519043 -9.14038086 121.4519043 -12.14038086 121.4519043 C-12.00227181 125.93134465 -11.8536067 130.41037212 -11.70288086 134.8894043 C-11.66356445 136.16879883 -11.62424805 137.44819336 -11.58374023 138.76635742 C-11.5418457 139.98129883 -11.49995117 141.19624023 -11.45678711 142.44799805 C-11.40180054 144.13687134 -11.40180054 144.13687134 -11.34570312 145.85986328 C-11.42820041 148.38043871 -11.42820041 148.38043871 -10.14038086 149.4519043 C-8.2914614 149.68554311 -6.43550054 149.86494064 -4.57788086 150.0144043 C-3.5659668 150.09819336 -2.55405273 150.18198242 -1.51147461 150.26831055 C-0.72901367 150.32889648 0.05344727 150.38948242 0.85961914 150.4519043 C2.43039821 155.47839733 3.30816643 160.21310352 3.85961914 165.4519043 C-1.61455223 167.59935697 -7.0189453 169.31449359 -12.72631836 170.71362305 C-13.50931305 170.90914261 -14.29230774 171.10466217 -15.09902954 171.30610657 C-16.73709405 171.71412425 -18.37572412 172.11987766 -20.01489258 172.5234375 C-22.53077356 173.14319611 -25.04465134 173.77062312 -27.55834961 174.39916992 C-29.15589488 174.79610123 -30.75354736 175.19260133 -32.35131836 175.58862305 C-33.10335541 175.7760759 -33.85539246 175.96352875 -34.63021851 176.15666199 C-39.90811766 177.4519043 -39.90811766 177.4519043 -42.14038086 177.4519043 C-42.81164215 175.0155854 -43.4775444 172.57801546 -44.14038086 170.1394043 C-44.33116211 169.44911133 -44.52194336 168.75881836 -44.71850586 168.04760742 C-45.5175427 165.09402481 -46.14038086 162.52631211 -46.14038086 159.4519043 C-42.51038086 158.4619043 -38.88038086 157.4719043 -35.14038086 156.4519043 C-35.10723785 155.3329628 -35.07409485 154.2140213 -35.03994751 153.06117249 C-34.28673214 127.65743923 -33.51359246 102.25441873 -32.71121216 76.85218811 C-32.39731537 66.88695866 -32.08986179 56.9218468 -31.82741737 46.95511723 C-31.68740903 41.64575207 -31.52787107 36.33721385 -31.35638428 31.02877808 C-31.2960052 29.02879701 -31.24420369 27.02853749 -31.20123291 25.02810669 C-31.14301349 22.35694136 -31.05606651 19.68836401 -30.96069336 17.01831055 C-30.94806458 15.90051208 -30.94806458 15.90051208 -30.93518066 14.76013184 C-30.84399414 12.73535156 -30.84399414 12.73535156 -30.14038086 9.4519043 C-25.55725553 5.61486914 -19.21431882 4.36641729 -13.57788086 2.6394043 C-12.53696289 2.30231445 -11.49604492 1.96522461 -10.42358398 1.61791992 C-9.42133789 1.30918945 -8.4190918 1.00045898 -7.38647461 0.68237305 C-6.47567139 0.39773193 -5.56486816 0.11309082 -4.62646484 -0.18017578 C-2.14038086 -0.5480957 -2.14038086 -0.5480957 0 0 Z " fill="#9E2F2F" transform="translate(238.140380859375,409.548095703125)"/>
<path d="M0 0 C7.29786337 2.31125391 14.38664309 5.06189141 21.46484375 7.96875 C22.73271379 8.48730625 24.00257213 9.00102885 25.27441406 9.50976562 C38.63969113 14.85587645 51.6469616 20.94914499 58.69140625 34.17578125 C60.47705019 38.61193465 60.49543574 42.95742831 60.4375 47.6875 C60.42775146 48.57598633 60.41800293 49.46447266 60.40795898 50.37988281 C60.21527523 57.54641209 59.14844874 63.4999768 56 70 C55.69384766 70.63421875 55.38769531 71.2684375 55.07226562 71.921875 C48.57520939 85.0892423 41.16342364 93.73163214 27.2109375 99.06640625 C14.49885174 102.76249931 3.2840352 99.05699967 -8.40283203 94.09570312 C-11.2005165 92.91540533 -14.01783761 91.79268495 -16.83984375 90.671875 C-18.76924065 89.8879014 -20.69764984 89.10149202 -22.625 88.3125 C-23.54434326 87.94455322 -24.46368652 87.57660645 -25.41088867 87.19750977 C-26.25756104 86.83971436 -27.1042334 86.48191895 -27.9765625 86.11328125 C-28.73018066 85.80173096 -29.48379883 85.49018066 -30.26025391 85.16918945 C-32 84 -32 84 -32.80004883 81.98803711 C-33.16545145 78.35498025 -30.89635074 75.98818904 -29 73 C-26.69 73.33 -24.38 73.66 -22 74 C-21.83636963 73.47212891 -21.67273926 72.94425781 -21.50415039 72.40039062 C-19.53143739 66.24311459 -17.07171911 60.39958002 -14.4375 54.5 C-10.61186817 45.79710007 -6.89406929 37.05631877 -3.3125 28.25 C-2.86640381 27.17298828 -2.42030762 26.09597656 -1.96069336 24.98632812 C-1.55729736 23.98537109 -1.15390137 22.98441406 -0.73828125 21.953125 C-0.37774658 21.06786133 -0.01721191 20.18259766 0.35424805 19.27050781 C1.26859066 16.8662938 1.26859066 16.8662938 0 14 C-1.99665314 12.31461399 -1.99665314 12.31461399 -4 11 C-3.52269162 9.5410574 -3.04308958 8.08286504 -2.5625 6.625 C-2.29566406 5.81289063 -2.02882813 5.00078125 -1.75390625 4.1640625 C-1 2 -1 2 0 0 Z " fill="#9D2E2E" transform="translate(690,750)"/>
<path d="M0 0 C4.59438028 2.53858978 7.26920105 6.4622877 9.3046875 11.2734375 C10.0265625 10.5103125 10.7484375 9.7471875 11.4921875 8.9609375 C15.84665074 4.80000596 18.55980932 3.08257266 24.6171875 2.7734375 C31.34261127 2.98134711 35.32991874 5.36492194 40.05859375 9.98828125 C45.05608514 15.49154285 46.80091485 20.08499863 46.61328125 27.53515625 C45.10523574 40.91667403 36.30240129 52.779939 26.3046875 61.2734375 C22.09206495 64.46299457 17.74622395 67.41484909 13.3046875 70.2734375 C12.71478027 70.65483887 12.12487305 71.03624023 11.51708984 71.42919922 C0.41070498 78.56448484 0.41070498 78.56448484 -3.6953125 79.2734375 C-34.66773126 38.39827261 -34.66773126 38.39827261 -32.6953125 18.2734375 C-31.47572558 11.82296607 -29.64006266 6.79735786 -24.6953125 2.2734375 C-16.00273107 -3.29040495 -9.5283675 -4.08358607 0 0 Z " fill="#9F3030" transform="translate(462.6953125,245.7265625)"/>
<path d="M0 0 C6.96170637 3.97811792 9.17438472 9.69430723 11.578125 17.125 C12.32835937 16.68027344 13.07859375 16.23554688 13.8515625 15.77734375 C19.89898151 12.43374558 24.45416459 10.16632683 31.3984375 11.453125 C37.74243212 13.40862155 41.69461215 17.98914913 45.578125 23.125 C48.18947609 28.34770218 47.44515996 37.26589934 45.77734375 42.765625 C44.55804216 45.09528715 43.20452907 47.05851013 41.578125 49.125 C40.95808594 49.94484375 40.33804688 50.7646875 39.69921875 51.609375 C27.16023465 66.85012916 6.30415018 74.56945352 -12.421875 79.125 C-13.411875 79.125 -14.401875 79.125 -15.421875 79.125 C-17.06564377 75.23631936 -18.70090846 71.34419387 -20.32910156 67.44897461 C-20.88158638 66.13034123 -21.43619957 64.81259713 -21.99316406 63.49584961 C-32.21670949 39.31181299 -32.21670949 39.31181299 -31.984375 27.4375 C-31.97341797 26.62442383 -31.96246094 25.81134766 -31.95117188 24.97363281 C-31.67223018 17.23455035 -29.84367431 11.72974699 -24.44921875 6.046875 C-17.314702 -0.5142133 -9.66285672 -3.49109662 0 0 Z " fill="#9F2F2F" transform="translate(857.421875,379.875)"/>
<path d="M0 0 C5.72560764 3.34384872 10.17630366 8.5231836 12.20703125 14.8984375 C15.60772791 32.86959869 8.4223106 47.62228582 -1.3125 62.4375 C-4.14515336 66.51261373 -7.09705218 70.4947276 -10.08984375 74.453125 C-12.2577485 77.18168082 -12.2577485 77.18168082 -13.3125 79.4375 C-30.40231361 74.29770643 -53.38301483 59.81202449 -62.09375 44.01171875 C-65.83591142 36.10760215 -68.14602617 27.83022404 -65.25 19.3125 C-61.44291252 13.66327342 -56.87053213 8.71273564 -50.3125 6.4375 C-43.94338675 5.71840657 -39.64386411 6.87946809 -34.3125 10.4375 C-32.46903777 12.0131469 -30.92955574 13.61831229 -29.3125 15.4375 C-29.10496094 14.78523438 -28.89742187 14.13296875 -28.68359375 13.4609375 C-26.46583013 7.16954112 -24.0322777 3.03392635 -18.3125 -0.5625 C-12.42614627 -2.52461791 -5.71014423 -2.579486 0 0 Z " fill="#9F3030" transform="translate(201.3125,274.5625)"/>
<path d="M0 0 C4.75942278 3.20984327 7.94373229 6.2641482 9.6875 11.8125 C10.3475 11.8125 11.0075 11.8125 11.6875 11.8125 C11.9659375 10.513125 11.9659375 10.513125 12.25 9.1875 C14.30927825 4.3526728 17.98985089 1.16132455 22.6875 -1.1875 C29.80564091 -1.91848753 35.84726331 -1.57087239 41.6875 2.8125 C45.81605553 6.77554551 49.37896005 10.8553249 49.98828125 16.6953125 C50.05371579 34.79886942 41.93898399 46.91502867 29.6875 59.8125 C28.53504189 61.14011143 27.38882593 62.47317655 26.25 63.8125 C23.39589261 67.06004743 20.48006009 70.24245146 17.5 73.375 C16.68144531 74.24253906 15.86289062 75.11007812 15.01953125 76.00390625 C12.6875 77.8125 12.6875 77.8125 10.59375 77.75390625 C-4.93863029 70.08320205 -20.81643961 49.4532291 -27.3125 33.8125 C-29.74622436 26.55843126 -29.80880654 15.63191664 -26.4375 8.6875 C-20.22792189 -0.42571182 -10.25297509 -3.67559484 0 0 Z " fill="#9F3030" transform="translate(307.3125,248.1875)"/>
<path d="M0 0 C1.11181641 0.09667969 1.11181641 0.09667969 2.24609375 0.1953125 C6.16836921 1.3461994 8.74145208 3.59547518 10.93359375 7.01171875 C17.52119061 22.76886436 26.60153838 49.0760185 20.0625 65.8125 C17.20314261 71.29549715 12.45064426 75.91228525 6.5625 77.875 C-4.81168384 79.02390746 -4.81168384 79.02390746 -8.9375 75.9375 C-12.96371535 71.0053862 -15.4375 66.29745693 -15.4375 59.875 C-16.0975 59.875 -16.7575 59.875 -17.4375 59.875 C-17.664375 60.4525 -17.89125 61.03 -18.125 61.625 C-20.21291866 65.20428912 -23.15573683 67.12730482 -26.6875 69.1875 C-30.83957355 70.22551839 -34.34055935 70.16805436 -38.4375 68.875 C-42.77248398 66.04912307 -46.57006994 62.7974006 -48.4375 57.875 C-49.60982306 49.45895443 -48.25041922 42.84813645 -43.4375 35.875 C-40.59653716 32.38050768 -37.5414238 29.13516158 -34.4375 25.875 C-33.07847716 24.31672193 -31.72410428 22.75437308 -30.375 21.1875 C-26.67946861 17.03276057 -22.72943895 13.40219347 -18.4375 9.875 C-17.58414062 9.16859375 -16.73078125 8.4621875 -15.8515625 7.734375 C-5.6232694 -0.60423345 -5.6232694 -0.60423345 0 0 Z " fill="#9F2F30" transform="translate(461.4375,666.125)"/>
<path d="M0 0 C6.37974684 4.75949367 6.37974684 4.75949367 8 8 C7.9573097 13.93395135 7.11248365 18.8576357 4 24 C-3.92430279 24.62151394 -3.92430279 24.62151394 -7.8125 22.375 C-10.22154561 19.75946477 -12.02956376 16.95565435 -14 14 C-18.72451741 9.73641112 -22.47510897 8.54440859 -28.73046875 8.67578125 C-32.55194239 9.22170606 -34.66258997 11.12318765 -37 14 C-44.35254871 24.11963693 -48.08428914 33.40597446 -48.25 46 C-48.27578125 47.175625 -48.3015625 48.35125 -48.328125 49.5625 C-47.87249684 54.33574734 -46.47663321 57.73431439 -42.8125 60.875 C-37.77331578 62.89067369 -33.49852131 62.44692741 -28.4375 60.9375 C-23.89044389 59.69739379 -20.1684539 59.78024468 -16 62.125 C-14.33361079 65.24947977 -15.1923587 67.65405747 -16 71 C-17.89206074 75.16253363 -19.93139195 76.96569597 -24 79 C-32.61712521 81.87237507 -41.18034859 80.25599723 -49.2109375 76.484375 C-58.90879499 71.32305028 -66.35678843 65.73788675 -70 55 C-73.26827841 38.95572415 -69.64714737 21.2747069 -61.3671875 7.23046875 C-45.85399614 -13.94684132 -20.66867261 -13.09541852 0 0 Z " fill="#9E2E2E" transform="translate(643,291)"/>
<path d="M0 0 C-2.33243331 8.50857693 -5.46795964 16.67313309 -8.6875 24.875 C-9.27633371 26.38336346 -9.86511763 27.89174636 -10.45385742 29.40014648 C-17.62030854 47.71548623 -24.95739105 65.96437137 -32.2813797 84.21716976 C-33.32244576 86.81172369 -34.36300748 89.4064798 -35.40362167 92.00121498 C-36.13011845 93.8117377 -36.85766643 95.6218385 -37.5852356 97.43193054 C-38.02092865 98.51795059 -38.4566217 99.60397064 -38.90551758 100.72290039 C-39.28742752 101.67354874 -39.66933746 102.62419708 -40.06282043 103.60365295 C-40.75891459 105.38355003 -41.39563416 107.18690248 -42 109 C-42.66 109 -43.32 109 -44 109 C-44.6392371 107.71531961 -45.26033982 106.42161893 -45.875 105.125 C-46.22304688 104.40570312 -46.57109375 103.68640625 -46.9296875 102.9453125 C-49.76458609 95.14416821 -50.3619756 87.30513515 -50.3125 79.0625 C-50.30686035 78.06105957 -50.3012207 77.05961914 -50.29541016 76.02783203 C-49.91303129 52.15754712 -44.95139715 27.02517225 -28.30078125 9.19921875 C-19.77714271 1.0518359 -11.49864177 -0.3349119 0 0 Z " fill="#F1E6D8" transform="translate(481,416)"/>
<path d="M0 0 C7.24725282 6.88746012 10.15262188 14.8271829 11.25 24.5 C-89.65200591 8.8952107 -89.65200591 8.8952107 -132.75 0.5 C-132.75 0.17 -132.75 -0.16 -132.75 -0.5 C-109.34538956 -2.53192657 -85.91564978 -4.11704059 -62.4679184 -5.55131531 C-60.26240803 -5.68673812 -58.05700553 -5.82380753 -55.85162354 -5.96130371 C-52.3105566 -6.18170406 -48.76922591 -6.39729157 -45.22764969 -6.60934639 C-43.29421825 -6.72591855 -41.36101602 -6.84627335 -39.42782593 -6.96678162 C-10.82875812 -8.64859217 -10.82875812 -8.64859217 0 0 Z " fill="#F2E9DC" transform="translate(653.75,200.5)"/>
<path d="M0 0 C16.05582366 1.55774057 32.00078141 3.93287192 47.95898438 6.25854492 C51.84839106 6.82529373 55.73859746 7.38632526 59.62906837 7.9457159 C62.68050112 8.38517731 65.73146076 8.82785745 68.78229904 9.27142525 C70.21471136 9.47928843 71.64726446 9.6861844 73.07997513 9.89198112 C80.64650435 10.98059484 88.19301109 12.15734123 95.71630859 13.51391602 C97.00378998 13.7452272 98.29127136 13.97653839 99.61776733 14.21485901 C107.70520243 16.09225108 113.41655727 21.18865599 118 28 C121.73436609 35.25943142 122.56243258 41.92284327 122 50 C116.07737993 48.1558082 110.38993566 45.76631222 104.65625 43.4140625 C103.54695633 42.96089157 102.43766266 42.50772064 101.29475403 42.04081726 C98.92369018 41.07207449 96.55295709 40.10252182 94.18252563 39.13223267 C88.02315888 36.6112458 81.8612549 34.09648581 75.69921875 31.58203125 C74.49436325 31.09028915 73.28950775 30.59854706 72.04814148 30.09190369 C62.01027335 25.9979248 51.95274479 21.95631429 41.88110352 17.94628906 C30.41697273 13.37914764 18.99133316 8.71959176 7.57006836 4.04638672 C5.05073287 3.02065556 2.52668143 2.00748325 0 1 C0 0.67 0 0.34 0 0 Z " fill="#F1E9DB" transform="translate(685,250)"/>
<path d="M0 0 C8.07561124 2.56951267 12.75036592 5.61008969 17.1328125 12.87890625 C20.63771739 21.45171417 17.31236921 31.89006948 14 40 C9.6208971 49.20165925 4.49341232 55.12964132 -3.75 60.9375 C-10.45479246 63.12945138 -17.58384284 62.95496412 -24 60 C-23.40944463 54.00436154 -21.04067019 48.91173591 -18.6875 43.4375 C-17.78576832 41.31018819 -16.88476087 39.18256928 -15.984375 37.0546875 C-15.26411133 35.35844238 -15.26411133 35.35844238 -14.52929688 33.62792969 C-12.90000974 29.76279449 -11.29717061 25.88757353 -9.703125 22.0078125 C-9.43035233 21.34457474 -9.15757965 20.68133698 -8.87654114 19.9980011 C-7.79438055 17.36615421 -6.71256967 14.73417155 -5.63412476 12.10079956 C-4.88204752 10.26548808 -4.12664798 8.43153907 -3.37109375 6.59765625 C-2.7203186 5.01223022 -2.7203186 5.01223022 -2.05639648 3.39477539 C-1 1 -1 1 0 0 Z " fill="#F1E6D8" transform="translate(712,772)"/>
<path d="M0 0 C3.36826604 2.73065189 6.07496314 5.61869932 8.625 9.125 C8.625 9.785 8.625 10.445 8.625 11.125 C2.015625 11.67578125 2.015625 11.67578125 -0.1078949 11.85270691 C-4.08537775 12.18411633 -8.06284388 12.51572479 -12.0402832 12.84765625 C-19.48153392 13.46847242 -26.92282203 14.08872009 -34.36477661 14.7010498 C-37.35631153 14.94721872 -40.34778326 15.19414842 -43.3392334 15.44134521 C-44.82383601 15.56398205 -46.30845523 15.68641792 -47.79309082 15.80865479 C-56.04992995 16.48961025 -64.30260927 17.20106449 -72.55078125 17.98046875 C-73.29740524 18.05053131 -74.04402924 18.12059387 -74.8132782 18.19277954 C-78.34917548 18.52492969 -81.88437847 18.86243049 -85.41870117 19.2109375 C-93.0997838 19.93925273 -100.65976507 20.29471362 -108.375 20.125 C-105.47426512 18.19117675 -103.10492062 17.22149889 -99.828125 16.09375 C-98.68851318 15.70018311 -97.54890137 15.30661621 -96.37475586 14.90112305 C-95.13733643 14.48000244 -93.89991699 14.05888184 -92.625 13.625 C-91.98917999 13.40768219 -91.35335999 13.19036438 -90.69827271 12.96646118 C-85.92913064 11.33683181 -81.15386272 9.72588333 -76.375 8.125 C-75.69870544 7.89842712 -75.02241089 7.67185425 -74.32562256 7.43841553 C-47.63841641 -1.48458525 -47.63841641 -1.48458525 -34.0625 -5 C-33.31154053 -5.20020752 -32.56058105 -5.40041504 -31.78686523 -5.60668945 C-20.25834205 -8.42762365 -9.77405339 -6.98146671 0 0 Z " fill="#F2E9DC" transform="translate(504.375,167.875)"/>
<path d="M0 0 C0.91644287 0.00523682 1.83288574 0.01047363 2.77709961 0.01586914 C3.76645508 0.0190918 4.75581055 0.02231445 5.77514648 0.02563477 C6.81606445 0.03401367 7.85698242 0.04239258 8.92944336 0.05102539 C10.49662109 0.05779297 10.49662109 0.05779297 12.09545898 0.06469727 C14.68600996 0.07652627 17.27644895 0.0930085 19.86694336 0.11352539 C19.22652277 8.8894382 18.00891299 17.55312884 16.71020508 26.25 C16.36403987 28.57048868 16.02337538 30.89173932 15.68334961 33.21313477 C15.46361835 34.69951035 15.24357761 36.18584023 15.02319336 37.67211914 C14.87158752 38.70495277 14.87158752 38.70495277 14.71691895 39.75865173 C14.24196294 42.92287563 13.72649487 46.02905032 12.86694336 49.11352539 C10.55450544 49.14037951 8.24198066 49.1598538 5.92944336 49.17602539 C4.64166992 49.18762695 3.35389648 49.19922852 2.02709961 49.21118164 C-1.13305664 49.11352539 -1.13305664 49.11352539 -2.13305664 48.11352539 C-3.3949669 39.30681363 -3.28574234 30.48288042 -3.26342773 21.60595703 C-3.25800348 19.02573955 -3.2634328 16.44569114 -3.26977539 13.86547852 C-3.2691157 12.22810834 -3.26783682 10.59073827 -3.26586914 8.95336914 C-3.26789337 8.18057114 -3.2699176 7.40777313 -3.27200317 6.61155701 C-3.24335251 0.17261748 -3.24335251 0.17261748 0 0 Z " fill="#F1E6D8" transform="translate(337.133056640625,410.886474609375)"/>
<path d="M0 0 C4.24545391 4.00263275 7.67367628 8.36749479 11.125 13.0625 C11.91197266 14.12307617 11.91197266 14.12307617 12.71484375 15.20507812 C13.71779301 16.5571553 14.71703195 17.91199542 15.71191406 19.27001953 C16.70489397 20.60365403 17.7454449 21.90195605 18.8046875 23.18359375 C21.76557096 27.68297548 21.12279278 33.12268318 21.0625 38.3125 C21.05798828 39.05306641 21.05347656 39.79363281 21.04882812 40.55664062 C21.03712175 42.37112899 21.01918898 44.18557534 21 46 C19.02231717 46.62967954 17.04276065 47.25347489 15.0625 47.875 C13.96035156 48.22304688 12.85820312 48.57109375 11.72265625 48.9296875 C8.90110669 49.74092001 6.13053485 50.44082017 3.26733398 51.06689453 C2.46561264 51.24286163 1.6638913 51.41882874 0.83787537 51.60012817 C-0.07187294 51.79806473 -0.07187294 51.79806473 -1 52 C-1.02537644 45.39803896 -1.04287804 38.79609052 -1.05493164 32.1940918 C-1.05995719 29.94864431 -1.06677865 27.70320008 -1.07543945 25.45776367 C-1.08758281 22.22834466 -1.09324614 18.99896895 -1.09765625 15.76953125 C-1.10281754 14.76727005 -1.10797882 13.76500885 -1.11329651 12.7323761 C-1.11337204 11.79177841 -1.11344757 10.85118073 -1.11352539 9.88208008 C-1.115746 9.05823318 -1.11796661 8.23438629 -1.12025452 7.38557434 C-0.9920579 4.84244683 -0.55729388 2.48159069 0 0 Z " fill="#F1E6D8" transform="translate(227,461)"/>
<path d="M0 0 C3.63 0 7.26 0 11 0 C10.35200306 11.92861974 8.4107679 23.54374777 6.4375 35.3125 C6.10430794 37.32478545 5.7716217 39.33715472 5.43945312 41.34960938 C4.63212762 46.23405838 3.81797496 51.11732361 3 56 C2.34 56 1.68 56 1 56 C0.0309613 49.53527123 -0.13107425 43.24950714 -0.09765625 36.71875 C-0.0962413 35.66465942 -0.09482635 34.61056885 -0.09336853 33.52453613 C-0.08780508 30.18299429 -0.07525941 26.84152133 -0.0625 23.5 C-0.05748027 21.22395931 -0.0529182 18.94791755 -0.04882812 16.671875 C-0.03784763 11.1145571 -0.02060839 5.5572902 0 0 Z " fill="#F1E6D9" transform="translate(336,476)"/>
<path d="M0 0 C0.33 0 0.66 0 1 0 C1.61061772 20.67005946 2.18576102 41.31860612 2 62 C1.01 62 0.02 62 -1 62 C-0.99476318 61.15703369 -0.98952637 60.31406738 -0.98413086 59.44555664 C-0.96712174 56.32772064 -0.95456594 53.20990823 -0.94506836 50.09204102 C-0.94002943 48.74079614 -0.93319823 47.38955674 -0.92456055 46.03833008 C-0.91247581 44.09979566 -0.90730172 42.161222 -0.90234375 40.22265625 C-0.89710693 39.05484619 -0.89187012 37.88703613 -0.88647461 36.68383789 C-0.69338505 34.08108449 -0.69338505 34.08108449 -2 33 C-1.77822768 30.91792397 -1.54997471 28.83638217 -1.29345703 26.75830078 C-0.75176527 21.66675879 -0.6255633 16.55220514 -0.4375 11.4375 C-0.39431641 10.33341797 -0.35113281 9.22933594 -0.30664062 8.09179688 C-0.20155613 5.39462815 -0.09940587 2.69738297 0 0 Z " fill="#EBD0C8" transform="translate(302,470)"/>
<path d="M0 0 C2 2 2 2 2.20254517 3.91091919 C2.18033905 4.68813324 2.15813293 5.46534729 2.13525391 6.26611328 C2.11508209 7.14687531 2.09491028 8.02763733 2.0741272 8.93508911 C2.04193085 9.88721283 2.0097345 10.83933655 1.9765625 11.8203125 C1.95153656 12.79410858 1.92651062 13.76790466 1.90072632 14.77120972 C1.81838269 17.88948644 1.72184869 21.00714329 1.625 24.125 C1.56677513 26.23565155 1.50947155 28.34632872 1.453125 30.45703125 C1.31278279 35.63836592 1.1607799 40.81926146 1 46 C0.67 46 0.34 46 0 46 C-0.17015199 41.53862258 -0.33038208 37.07702106 -0.48217773 32.61499023 C-0.53491721 31.10317858 -0.59017499 29.59145226 -0.64819336 28.07983398 C-1.00873305 18.63369397 -0.98724475 9.42463572 0 0 Z " fill="#E7E1D5" transform="translate(299,419)"/>
<path d="M0 0 C-0.33 0.66 -0.66 1.32 -1 2 C-4.0625 2.625 -4.0625 2.625 -7 3 C-7.061875 3.5775 -7.12375 4.155 -7.1875 4.75 C-8 7 -8 7 -10.4375 8.9375 C-14.06311237 11.85567581 -14.80748252 14.5524865 -15.4140625 19.11328125 C-15.48367188 20.16902344 -15.55328125 21.22476562 -15.625 22.3125 C-15.69976562 23.38113281 -15.77453125 24.44976562 -15.8515625 25.55078125 C-15.90054687 26.35902344 -15.94953125 27.16726563 -16 28 C-16.33 28 -16.66 28 -17 28 C-17.9317135 12.28509894 -17.9317135 12.28509894 -13.62890625 5.8125 C-9.84900001 1.60656116 -5.74639057 -2.02211517 0 0 Z " fill="#8A1F1E" transform="translate(296,249)"/>
<path d="M0 0 C0 0.99 0 1.98 0 3 C-6.4126762 6.57916811 -12.75430692 6.72930506 -20 6 C-22.39453125 4.98046875 -22.39453125 4.98046875 -24 4 C-24 3.67 -24 3.34 -24 3 C-23.01604248 2.970271 -23.01604248 2.970271 -22.01220703 2.93994141 C-19.04938931 2.84487493 -16.08729468 2.73512248 -13.125 2.625 C-11.57619141 2.57859375 -11.57619141 2.57859375 -9.99609375 2.53125 C-8.51689453 2.47324219 -8.51689453 2.47324219 -7.0078125 2.4140625 C-5.64100342 2.36693115 -5.64100342 2.36693115 -4.24658203 2.31884766 C-1.80068814 2.20117489 -1.80068814 2.20117489 0 0 Z " fill="#952A28" transform="translate(623,365)"/>
<path d="M0 0 C3.38034772 2.66359778 4.06103926 5.75983089 5.1875 9.8125 C5.70376953 11.61654297 5.70376953 11.61654297 6.23046875 13.45703125 C6.95084461 16.7736856 7.15001933 19.62197863 7 23 C6.34 23 5.68 23 5 23 C4.67 23.66 4.34 24.32 4 25 C3.93941406 24.39671875 3.87882812 23.7934375 3.81640625 23.171875 C3.69072266 21.97304688 3.69072266 21.97304688 3.5625 20.75 C3.48128906 19.96109375 3.40007812 19.1721875 3.31640625 18.359375 C3.02309103 16.17218494 2.55179485 14.13331708 2 12 C1.66073053 9.66752239 1.32759934 7.33414529 1 5 C0.68033861 3.33065717 0.35268934 1.6626783 0 0 Z " fill="#972929" transform="translate(472,677)"/>
<path d="M0 0 C4.21733542 2.97047104 6.64447278 6.21330671 9.0625 10.6875 C9.40539062 11.3074585 9.74828125 11.92741699 10.1015625 12.56616211 C17.71151148 26.485786 17.71151148 26.485786 17 32 C14.71361288 29.49586173 13.68314068 27.19354357 12.75 24 C10.49925925 16.80715655 6.51938707 10.0994217 1.77734375 4.265625 C0 2 0 2 0 0 Z " fill="#8B2522" transform="translate(747,481)"/>
<path d="M0 0 C0.66 0.66 1.32 1.32 2 2 C0.35 2.33 -1.3 2.66 -3 3 C-3 3.33 -3 3.66 -3 4 C-6.83724172 4.90413673 -10.37502274 5.10576898 -14.3125 5.0625 C-15.38113281 5.05347656 -16.44976562 5.04445312 -17.55078125 5.03515625 C-18.35902344 5.02355469 -19.16726563 5.01195312 -20 5 C-13.81279294 0.87519529 -7.37594064 -0.64701234 0 0 Z " fill="#E7E0D9" transform="translate(416,183)"/>
<path d="M0 0 C2.09114209 2.0074964 2.26452808 3.66926675 2.5625 6.5 C1.22916667 5.16666667 -0.10416667 3.83333333 -1.4375 2.5 C-2.159375 3.16 -2.88125 3.82 -3.625 4.5 C-6.65347933 6.6535853 -7.83453406 6.91176754 -11.4375 6.5 C-11.17578125 4.6171875 -11.17578125 4.6171875 -10.4375 2.5 C-7.23371775 0.40324549 -3.77024216 -0.77338301 0 0 Z " fill="#942C2B" transform="translate(238.4375,409.5)"/>
<path d="M0 0 C-1.98 0.99 -1.98 0.99 -4 2 C-4 3.32 -4 4.64 -4 6 C-5.0828125 6.12375 -5.0828125 6.12375 -6.1875 6.25 C-9.55221031 7.14725608 -11.35673807 8.78537514 -14 11 C-14.66 11 -15.32 11 -16 11 C-14.63310446 7.84930578 -13.14342115 5.99108226 -10.5 3.8125 C-9.8915625 3.30332031 -9.283125 2.79414063 -8.65625 2.26953125 C-5.66856967 -0.02055391 -3.70529325 -0.09750772 0 0 Z " fill="#932423" transform="translate(154,282)"/>
<path d="M0 0 C0.33 0 0.66 0 1 0 C1.33 7.59 1.66 15.18 2 23 C1.34 23.33 0.68 23.66 0 24 C-1.50998663 20.98002674 -1.13162799 18.16957841 -1.125 14.8125 C-1.12757813 13.51957031 -1.13015625 12.22664062 -1.1328125 10.89453125 C-1.00529215 7.15518438 -0.60205223 3.68398625 0 0 Z " fill="#E1D8CE" transform="translate(261,682)"/>
<path d="M0 0 C0.33 0 0.66 0 1 0 C1.33 4.62 1.66 9.24 2 14 C2.33 14 2.66 14 3 14 C3.07654536 18.51617599 3.10228696 22.59085217 2 27 C1.34 27 0.68 27 0 27 C0 18.09 0 9.18 0 0 Z " fill="#F6F2EB" transform="translate(337,505)"/>
<path d="M0 0 C1.20171204 3.60513612 0.70719075 4.43559272 -0.65234375 7.88671875 C-1.19858398 9.2934082 -1.19858398 9.2934082 -1.75585938 10.72851562 C-2.34077148 12.19321289 -2.34077148 12.19321289 -2.9375 13.6875 C-3.32357422 14.67556641 -3.70964844 15.66363281 -4.10742188 16.68164062 C-5.06332125 19.12449459 -6.02778293 21.56360441 -7 24 C-7.66 24 -8.32 24 -9 24 C-9.33 22.68 -9.66 21.36 -10 20 C-9.34 20 -8.68 20 -8 20 C-8 17.69 -8 15.38 -8 13 C-7.06220703 12.90525391 -7.06220703 12.90525391 -6.10546875 12.80859375 C-3.7773328 12.196421 -3.7773328 12.196421 -2.98828125 9.78515625 C-2.76527344 8.88667969 -2.54226563 7.98820312 -2.3125 7.0625 C-1.01780415 2.03560831 -1.01780415 2.03560831 0 0 Z " fill="#F3EEE6" transform="translate(446,501)"/>
<path d="M0 0 C2.93878727 0.28159633 5.87560413 0.57481385 8.8125 0.875 C9.64587891 0.95363281 10.47925781 1.03226563 11.33789062 1.11328125 C12.14033203 1.19707031 12.94277344 1.28085938 13.76953125 1.3671875 C14.87711792 1.47716064 14.87711792 1.47716064 16.00708008 1.58935547 C18 2 18 2 21 4 C12.87260336 5.42152184 7.37380778 4.726892 0 1 C0 0.67 0 0.34 0 0 Z " fill="#F7F3ED" transform="translate(685,250)"/>
<path d="M0 0 C0.66 0 1.32 0 2 0 C2 4.29 2 8.58 2 13 C4.97 13.33 7.94 13.66 11 14 C11 14.33 11 14.66 11 15 C7.37 15 3.74 15 0 15 C0 10.05 0 5.1 0 0 Z " fill="#882524" transform="translate(288,395)"/>
<path d="M0 0 C0.99 0.33 1.98 0.66 3 1 C3.33 8.26 3.66 15.52 4 23 C3.34 22.67 2.68 22.34 2 22 C1.06451336 18.6322481 0.90052699 15.4815554 1 12 C0.67 12 0.34 12 0 12 C0 8.04 0 4.08 0 0 Z " fill="#E8DED3" transform="translate(239,394)"/>
<path d="M0 0 C0 3.84926685 -1.02041763 5.70069605 -3 9 C-4.90288793 10.85931034 -6.86917373 12.39004238 -9 14 C-9.66 13.34 -10.32 12.68 -11 12 C-7.37 8.04 -3.74 4.08 0 0 Z " fill="#932322" transform="translate(683,617)"/>
<path d="M0 0 C0.99 0.33 1.98 0.66 3 1 C2.67 4.63 2.34 8.26 2 12 C1.01 12.33 0.02 12.66 -1 13 C-1.02686553 11.02090602 -1.04633375 9.04171029 -1.0625 7.0625 C-1.07410156 5.96035156 -1.08570313 4.85820313 -1.09765625 3.72265625 C-1 1 -1 1 0 0 Z " fill="#E8E2D5" transform="translate(339,509)"/>
<path d="M0 0 C4.57269026 2.28634513 5.9952155 3.99362066 9 8 C9 8.66 9 9.32 9 10 C3.72 10 -1.56 10 -7 10 C-7 9.67 -7 9.34 -7 9 C-2.71 8.34 1.58 7.68 6 7 C4.02 4.69 2.04 2.38 0 0 Z " fill="#F7F3EC" transform="translate(504,169)"/>
<path d="M0 0 C1.60031344 3.20062687 0.03173691 5.72271806 -1 9 C-1.66 9 -2.32 9 -3 9 C-3.4021875 10.3303125 -3.4021875 10.3303125 -3.8125 11.6875 C-4.91710819 14.76877548 -6.22849144 17.26221405 -8 20 C-8.33 19.34 -8.66 18.68 -9 18 C-8.39501953 16.22827148 -8.39501953 16.22827148 -7.3828125 14.12109375 C-6.84333984 12.98704102 -6.84333984 12.98704102 -6.29296875 11.83007812 C-5.90753906 11.04052734 -5.52210938 10.25097656 -5.125 9.4375 C-4.74730469 8.64408203 -4.36960937 7.85066406 -3.98046875 7.03320312 C-1.16333128 1.16333128 -1.16333128 1.16333128 0 0 Z " fill="#892221" transform="translate(709,572)"/>
<path d="M0 0 C0.33 0 0.66 0 1 0 C1.76299944 8.14648632 2.21521251 15.88611956 1 24 C0.67 24 0.34 24 0 24 C-0.1958691 20.18788097 -0.38029565 16.37529466 -0.5625 12.5625 C-0.61857422 11.47388672 -0.67464844 10.38527344 -0.73242188 9.26367188 C-0.78076172 8.22919922 -0.82910156 7.19472656 -0.87890625 6.12890625 C-0.9260376 5.17056885 -0.97316895 4.21223145 -1.02172852 3.22485352 C-1 1 -1 1 0 0 Z " fill="#902F2D" transform="translate(336,524)"/>
<path d="M0 0 C0.33 0 0.66 0 1 0 C1.33923576 2.35344806 1.67150534 4.7075484 2 7.0625 C2.09539062 7.71927734 2.19078125 8.37605469 2.2890625 9.05273438 C2.88887674 13.40138763 3.09127093 17.61329071 3 22 C2.34 22 1.68 22 1 22 C-0.17700048 17.37540756 -0.11408412 12.92133538 -0.0625 8.1875 C-0.05573242 7.00510742 -0.05573242 7.00510742 -0.04882812 5.79882812 C-0.03711312 3.86585239 -0.01917998 1.93291607 0 0 Z " fill="#A84141" transform="translate(207,443)"/>
<path d="M0 0 C2 2 2 2 2.1953125 4.6015625 C2.17210937 5.59929687 2.14890625 6.59703125 2.125 7.625 C2.10695313 8.62789063 2.08890625 9.63078125 2.0703125 10.6640625 C2.03550781 11.82035156 2.03550781 11.82035156 2 13 C-1.77545388 11.90931332 -4.47043472 11.0916909 -7 8 C-4.69 8.66 -2.38 9.32 0 10 C0 6.7 0 3.4 0 0 Z " fill="#F3EEE6" transform="translate(805,287)"/>
<path d="M0 0 C0.66 0 1.32 0 2 0 C2.33 2.97 2.66 5.94 3 9 C2.01 8.34 1.02 7.68 0 7 C0 6.01 0 5.02 0 4 C-0.5775 4.804375 -1.155 5.60875 -1.75 6.4375 C-3.98126893 8.97866739 -4.74456771 9.65120368 -8 10 C-6.66415278 5.99245833 -4.23106172 4.62523764 -1 2 C-0.67 1.34 -0.34 0.68 0 0 Z " fill="#F7F1E8" transform="translate(444,726)"/>
<path d="M0 0 C5.94 0 11.88 0 18 0 C17.01 2.31 16.02 4.62 15 7 C14.34 6.67 13.68 6.34 13 6 C13.66 4.68 14.32 3.36 15 2 C10.05 1.67 5.1 1.34 0 1 C0 0.67 0 0.34 0 0 Z " fill="#F4EDE6" transform="translate(375,213)"/>
<path d="M0 0 C7.21094635 -0.83848213 13.55628525 1.91822338 20 5 C20.33 5.66 20.66 6.32 21 7 C17.03840266 6.38100042 13.56007698 5.12267721 9.8671875 3.62109375 C7.85352203 2.84218391 7.85352203 2.84218391 5 3 C5 2.34 5 1.68 5 1 C3.35 1 1.7 1 0 1 C0 0.67 0 0.34 0 0 Z " fill="#39251D" transform="translate(488,139)"/>
<path d="M0 0 C1.0354051 3.1848935 0.94040666 5.13031874 0.00390625 8.328125 C-0.33930664 9.52695312 -0.33930664 9.52695312 -0.68945312 10.75 C-0.93630859 11.575 -1.18316406 12.4 -1.4375 13.25 C-1.68048828 14.09046875 -1.92347656 14.9309375 -2.17382812 15.796875 C-2.77373949 17.86715734 -3.38570819 19.93393897 -4 22 C-4.66 21.67 -5.32 21.34 -6 21 C-6 19.68 -6 18.36 -6 17 C-5.34 17 -4.68 17 -4 17 C-3.87882812 16.27554687 -3.75765625 15.55109375 -3.6328125 14.8046875 C-2.75060421 9.71502427 -1.83557653 4.85116654 0 0 Z " fill="#871E1C" transform="translate(438,445)"/>
<path d="M0 0 C2.99969504 0.86833277 4.6146705 1.42200576 6.375 4.0625 C7.25049835 8.17734224 6.66430514 11.87951273 6 16 C5.67 16 5.34 16 5 16 C4.89042969 15.34773438 4.78085937 14.69546875 4.66796875 14.0234375 C3.73491038 8.8802377 2.65215917 4.58100221 0 0 Z " fill="#942322" transform="translate(611,433)"/>
<path d="M0 0 C1.31534494 3.65857532 0.65468309 6.08026481 -0.4375 9.75 C-0.86869141 11.22726562 -0.86869141 11.22726562 -1.30859375 12.734375 C-1.53675781 13.48203125 -1.76492188 14.2296875 -2 15 C-4.2903586 11.00949059 -4.01832411 8.49759815 -3 4 C-2.34 3.67 -1.68 3.34 -1 3 C-0.67 2.01 -0.34 1.02 0 0 Z " fill="#F4ECE2" transform="translate(575,309)"/>
<path d="M0 0 C1.35304209 4.05912626 0.15216503 5.77149591 -1.4375 9.6875 C-1.91058594 10.86699219 -2.38367188 12.04648437 -2.87109375 13.26171875 C-3.24363281 14.16535156 -3.61617188 15.06898438 -4 16 C-4.66 15.67 -5.32 15.34 -6 15 C-5.67 13.02 -5.34 11.04 -5 9 C-4.34 9 -3.68 9 -3 9 C-2.01 6.03 -1.02 3.06 0 0 Z " fill="#453128" transform="translate(499,427)"/>
<path d="M0 0 C0.33 0 0.66 0 1 0 C1.33 3.96 1.66 7.92 2 12 C1.01 12 0.02 12 -1 12 C-1.02712066 10.56260487 -1.04645067 9.12506137 -1.0625 7.6875 C-1.07410156 6.88699219 -1.08570313 6.08648437 -1.09765625 5.26171875 C-1 3 -1 3 0 0 Z " fill="#F1EFE3" transform="translate(434,467)"/>
<path d="M0 0 C-2.00745009 2.00745009 -3.47868292 2.77536028 -6 4 C-7.299375 4.8353125 -7.299375 4.8353125 -8.625 5.6875 C-9.40875 6.120625 -10.1925 6.55375 -11 7 C-11.66 6.67 -12.32 6.34 -13 6 C-11.87720538 5.01830524 -10.75168527 4.03972702 -9.625 3.0625 C-8.68527344 2.24458984 -8.68527344 2.24458984 -7.7265625 1.41015625 C-4.76764382 -1.00651715 -3.58505602 -1.07551681 0 0 Z " fill="#8D201F" transform="translate(845,381)"/>
<path d="M0 0 C1.37095624 3.69037278 0.60010967 5.70883835 -0.9375 9.25 C-1.31777344 10.14203125 -1.69804688 11.0340625 -2.08984375 11.953125 C-2.39019531 12.62859375 -2.69054687 13.3040625 -3 14 C-3.66 14 -4.32 14 -5 14 C-4.34580901 8.93001981 -2.1453591 4.58009223 0 0 Z " fill="#912221" transform="translate(760,571)"/>
<path d="M0 0 C1.8871875 0.0309375 1.8871875 0.0309375 3.8125 0.0625 C4.1425 1.0525 4.4725 2.0425 4.8125 3.0625 C0.8525 3.0625 -3.1075 3.0625 -7.1875 3.0625 C-7.1875 2.4025 -7.1875 1.7425 -7.1875 1.0625 C-4.43671116 0.14557039 -2.82801087 -0.04636083 0 0 Z " fill="#952121" transform="translate(342.1875,472.9375)"/>
<path d="M0 0 C5.08938811 1.59043379 8.87456643 4.7446951 13 8 C10 8 10 8 8.0625 6.5 C5.88588856 4.60788553 5.88588856 4.60788553 2 5 C1.34 3.35 0.68 1.7 0 0 Z M0 5 C2 6 2 6 2 6 Z " fill="#8F2421" transform="translate(719,458)"/>
<path d="M0 0 C4.96148579 4.80143786 4.96148579 4.80143786 5.09765625 9.0390625 C5.08605469 10.22242188 5.07445312 11.40578125 5.0625 12.625 C5.05347656 13.81351562 5.04445313 15.00203125 5.03515625 16.2265625 C5.02355469 17.14179688 5.01195312 18.05703125 5 19 C4.67 19 4.34 19 4 19 C3.67 14.71 3.34 10.42 3 6 C2.34 6 1.68 6 1 6 C0.67 4.02 0.34 2.04 0 0 Z " fill="#851F1D" transform="translate(899,399)"/>
<path d="M0 0 C0.66 0.33 1.32 0.66 2 1 C1.1875 3.4375 1.1875 3.4375 0 6 C-0.99 6.33 -1.98 6.66 -3 7 C-4.21869929 9.50447516 -4.21869929 9.50447516 -5 12 C-5.68359375 10.265625 -5.68359375 10.265625 -6 8 C-4.78515625 5.859375 -4.78515625 5.859375 -3.0625 3.75 C-2.49660156 3.04359375 -1.93070312 2.3371875 -1.34765625 1.609375 C-0.90292969 1.07828125 -0.45820313 0.5471875 0 0 Z " fill="#8E2624" transform="translate(438,248)"/>
<path d="M0 0 C0.66 0 1.32 0 2 0 C0.5755814 7.52906977 0.5755814 7.52906977 -2.0625 9.6875 C-2.701875 10.120625 -3.34125 10.55375 -4 11 C-3.39301257 6.87248551 -1.96189209 3.6678852 0 0 Z " fill="#962526" transform="translate(559,592)"/>
<path d="M0 0 C3.96 0 7.92 0 12 0 C11.34 1.32 10.68 2.64 10 4 C10 3.34 10 2.68 10 2 C6.7 2 3.4 2 0 2 C0 1.34 0 0.68 0 0 Z " fill="#E6DBD3" transform="translate(469,416)"/>
<path d="M0 0 C0.93065133 2.60582371 1.14917407 3.64198224 0.0625 6.25 C-0.288125 6.8275 -0.63875 7.405 -1 8 C-1.66 8 -2.32 8 -3 8 C-3.66 9.32 -4.32 10.64 -5 12 C-5 11.01 -5 10.02 -5 9 C-6.32 8.67 -7.64 8.34 -9 8 C-8.071875 7.79375 -7.14375 7.5875 -6.1875 7.375 C-2.73995905 6.25553808 -2.73995905 6.25553808 -1.125 2.875 C-0.75375 1.92625 -0.3825 0.9775 0 0 Z " fill="#F4EFE4" transform="translate(650,308)"/>
<path d="M0 0 C0.33 0 0.66 0 1 0 C1.58052245 3.00988272 2.05989746 5.92889402 2 9 C0.0625 11.0625 0.0625 11.0625 -2 12 C-1 3.42857143 -1 3.42857143 0 0 Z " fill="#922021" transform="translate(720,534)"/>
<path d="M0 0 C0.99 0 1.98 0 3 0 C3.99 3.96 4.98 7.92 6 12 C3.09907498 9.09907498 2.44538205 8.03482675 1.3125 4.3125 C1.06113281 3.50425781 0.80976562 2.69601562 0.55078125 1.86328125 C0.36902344 1.24839844 0.18726563 0.63351562 0 0 Z " fill="#902625" transform="translate(573,344)"/>
<path d="M0 0 C1.0326802 2.78823655 1.04509293 3.8677274 0.0625 6.75 C-0.288125 7.4925 -0.63875 8.235 -1 9 C-1.66 9 -2.32 9 -3 9 C-3.33 9.66 -3.66 10.32 -4 11 C-3.48964169 6.6109185 -2.47785723 3.66291938 0 0 Z " fill="#F5EDE3" transform="translate(757,586)"/>
<path d="M0 0 C3.7952131 1.49097658 5.61042731 3.75700849 8 7 C7.01 7.495 7.01 7.495 6 8 C5.34 7.67 4.68 7.34 4 7 C4 6.34 4 5.68 4 5 C3.01 4.67 2.02 4.34 1 4 C0.3125 1.9375 0.3125 1.9375 0 0 Z " fill="#EDDCD2" transform="translate(701,475)"/>
<path d="M0 0 C0.66 0.33 1.32 0.66 2 1 C2 3.64 2 6.28 2 9 C1.67 9 1.34 9 1 9 C0.67 10.65 0.34 12.3 0 14 C-0.33 14 -0.66 14 -1 14 C-1.027193 12.41676312 -1.04648306 10.83338938 -1.0625 9.25 C-1.07410156 8.36828125 -1.08570313 7.4865625 -1.09765625 6.578125 C-1.00826198 4.2181162 -0.66912821 2.25501476 0 0 Z " fill="#A53838" transform="translate(302,427)"/>
<path d="M0 0 C2.97 0 5.94 0 9 0 C9 0.66 9 1.32 9 2 C7.03852126 3.38938077 5.03833424 4.7260411 3 6 C2.34 5.67 1.68 5.34 1 5 C1.99 3.68 2.98 2.36 4 1 C2.68 0.67 1.36 0.34 0 0 Z " fill="#EAE5E0" transform="translate(556,230)"/>
<path d="M0 0 C-3.79083217 3.15071358 -6.04181289 3.44269528 -11 3 C-13.4375 2 -13.4375 2 -15 1 C-10.03926578 -0.32286246 -5.08888488 -0.08893197 0 0 Z " fill="#553F36" transform="translate(583,194)"/>
<path d="M0 0 C1.65 1.65 3.3 3.3 5 5 C0.71 5 -3.58 5 -8 5 C-8 4.67 -8 4.34 -8 4 C-5.36 3.67 -2.72 3.34 0 3 C0 2.01 0 1.02 0 0 Z " fill="#CABFB6" transform="translate(368,762)"/>
<path d="M0 0 C3.63 0 7.26 0 11 0 C11 0.99 11 1.98 11 3 C9.54077307 2.88590407 8.08259402 2.75834456 6.625 2.625 C5.40683594 2.52058594 5.40683594 2.52058594 4.1640625 2.4140625 C2 2 2 2 0 0 Z " fill="#F7EFE5" transform="translate(336,476)"/>
<path d="M0 0 C2.41201979 2.41201979 2.75925978 3.62963689 3 7 C1.5625 9.3125 1.5625 9.3125 0 11 C-1.28571429 3.57142857 -1.28571429 3.57142857 0 0 Z " fill="#A43A38" transform="translate(393,464)"/>
<path d="M0 0 C1.46067199 0.45082469 2.91848032 0.91093537 4.375 1.375 C5.18710937 1.63023437 5.99921875 1.88546875 6.8359375 2.1484375 C9 3 9 3 11 5 C9.68 5.33 8.36 5.66 7 6 C6.67 5.01 6.34 4.02 6 3 C3.03 2.505 3.03 2.505 0 2 C0 1.34 0 0.68 0 0 Z " fill="#3B271F" transform="translate(460,788)"/>
<path d="M0 0 C2 2 2 2 2.1953125 4.3828125 C2.17210937 5.28773438 2.14890625 6.19265625 2.125 7.125 C2.10695313 8.03507813 2.08890625 8.94515625 2.0703125 9.8828125 C2.03550781 10.93082031 2.03550781 10.93082031 2 12 C-1.15164348 8.24290923 -1.3709602 5.91522262 -1 1 C-0.67 0.67 -0.34 0.34 0 0 Z " fill="#544037" transform="translate(257,606)"/>
<path d="M0 0 C-1.93254772 2.0245738 -3.63158688 3.42105792 -6 5 C-6.99 5 -7.98 5 -9 5 C-8 2 -8 2 -5.625 0.25 C-3 -1 -3 -1 0 0 Z " fill="#F4EEE3" transform="translate(484,313)"/>
<path d="M0 0 C-0.99 0 -1.98 0 -3 0 C-3.226875 0.639375 -3.45375 1.27875 -3.6875 1.9375 C-5 4 -5 4 -7.625 4.75 C-8.800625 4.87375 -8.800625 4.87375 -10 5 C-5 -1.5 -5 -1.5 0 0 Z " fill="#8E2122" transform="translate(332,249)"/>
<path d="M0 0 C0.33 0 0.66 0 1 0 C1.33 3.63 1.66 7.26 2 11 C1.01 11 0.02 11 -1 11 C-0.67 7.37 -0.34 3.74 0 0 Z " fill="#554138" transform="translate(318,667)"/>
<path d="M0 0 C3.16130459 4.21507278 3.3367697 5.06071112 3 10 C2.01 10.33 1.02 10.66 0 11 C0 7.37 0 3.74 0 0 Z " fill="#574238" transform="translate(278,652)"/>
<path d="M0 0 C1.9955516 3.99110319 2.19546065 5.69986566 2 10 C1.01 10 0.02 10 -1 10 C-0.67 6.7 -0.34 3.4 0 0 Z " fill="#E8E0D5" transform="translate(349,604)"/>
<path d="M0 0 C0.66 0.33 1.32 0.66 2 1 C2 4.3 2 7.6 2 11 C-1 8 -1 8 -1.25 4.375 C-1 1 -1 1 0 0 Z " fill="#574038" transform="translate(236,309)"/>
<path d="M0 0 C-0.33 0.99 -0.66 1.98 -1 3 C-3.97 2.67 -6.94 2.34 -10 2 C-6.3558226 -0.4294516 -4.28758728 -0.16179575 0 0 Z " fill="#E5DCD2" transform="translate(541,201)"/>
<path d="M0 0 C1.5 1 1.5 1 3 3 C3.27345479 5.71846235 3.13491285 8.25677199 3 11 C1.5 10 1.5 10 0 8 C-0.27345479 5.28153765 -0.13491285 2.74322801 0 0 Z " fill="#574239" transform="translate(284,737)"/>
<path d="M0 0 C0.99 0.33 1.98 0.66 3 1 C3 4.3 3 7.6 3 11 C0.43383368 7.15075052 0.44902324 4.5650696 0 0 Z " fill="#F7F2EB" transform="translate(182,571)"/>
<path d="M0 0 C0.66 0.99 1.32 1.98 2 3 C1.34 4.32 0.68 5.64 0 7 C-0.66 7 -1.32 7 -2 7 C-2.33 7.66 -2.66 8.32 -3 9 C-2.5020163 5.26512223 -2.12508244 3.18762365 0 0 Z " fill="#932525" transform="translate(574,554)"/>
<path d="M0 0 C0.33 0.66 0.66 1.32 1 2 C1.66 2 2.32 2 3 2 C3 4.64 3 7.28 3 10 C2.01 9.34 1.02 8.68 0 8 C-0.40843923 5.28796348 -0.13336867 2.7562858 0 0 Z " fill="#543E35" transform="translate(237,334)"/>
<path d="M0 0 C3.63 0.33 7.26 0.66 11 1 C9.515 2.485 9.515 2.485 8 4 C5.36 3.01 2.72 2.02 0 1 C0 0.67 0 0.34 0 0 Z " fill="#EBE5E1" transform="translate(685,250)"/>
<path d="M0 0 C0.33 0 0.66 0 1 0 C1.33 3.3 1.66 6.6 2 10 C1.01 10 0.02 10 -1 10 C-0.67 6.7 -0.34 3.4 0 0 Z " fill="#DCD3C8" transform="translate(382,386)"/>
<path d="M0 0 C0.66 0 1.32 0 2 0 C1.67 2.97 1.34 5.94 1 9 C-1.08954032 4.82091936 -1.16552619 4.19589427 0 0 Z " fill="#9D2929" transform="translate(211,288)"/>
<path d="M0 0 C0.804375 0.12375 1.60875 0.2475 2.4375 0.375 C3.0975 1.365 3.7575 2.355 4.4375 3.375 C1.1375 3.375 -2.1625 3.375 -5.5625 3.375 C-2.5625 0.375 -2.5625 0.375 0 0 Z " fill="#57423A" transform="translate(454.5625,182.625)"/>
<path d="M0 0 C2.625 -0.1875 2.625 -0.1875 5 0 C5.33 0.66 5.66 1.32 6 2 C3.36 2.33 0.72 2.66 -2 3 C-1.34 2.01 -0.68 1.02 0 0 Z " fill="#F1ECE5" transform="translate(281,785)"/>
<path d="M0 0 C-0.33 3.63 -0.66 7.26 -1 11 C-1.33 11 -1.66 11 -2 11 C-2.33 7.7 -2.66 4.4 -3 1 C-1 0 -1 0 0 0 Z " fill="#553D36" transform="translate(318,688)"/>
<path d="M0 0 C3.00617269 3.00617269 2.59585316 5.82381598 3 10 C2.67 9.01 2.34 8.02 2 7 C1.34 7 0.68 7 0 7 C0 4.69 0 2.38 0 0 Z " fill="#3F2A23" transform="translate(134,397)"/>
<path d="M0 0 C2.1519437 3.22791555 2.20086443 4.28400809 2 8 C1.01 8.33 0.02 8.66 -1 9 C-1.125 2.25 -1.125 2.25 0 0 Z " fill="#574239" transform="translate(235,294)"/>
</svg>
